<?xml version="1.0" encoding="utf-8"?>
<!-- Generator: Adobe Illustrator 24.0.2, SVG Export Plug-In . SVG Version: 6.00 Build 0)  -->
<svg version="1.1" id="Capa_1" xmlns="http://www.w3.org/2000/svg" xmlns:xlink="http://www.w3.org/1999/xlink" x="0px" y="0px"
	 viewBox="0 0 765 274" style="enable-background:new 0 0 765 274;" xml:space="preserve">
<style type="text/css">
	.st0{fill:#FFFFFF;}
	.st1{fill:#749B2D;}
</style>
<g>
	<path class="st0" d="M24.2,152.3c-10.9,0-16.5-7-14.3-19.9l3.5-20.1c1.1-5.6,1-10.8-4.3-11.9C7.7,100.2,7,99.5,7.2,98l1.5-9.9
		c0.1-1.1,1-1.8,2.3-2c5.5-1.3,8.5-7.5,9.4-13.3l3.5-20c2.4-13.5,8.1-18.6,20-18.6h6.6c1.4,0,2.1,0.9,2,2.4l-2,11.6
		c-0.2,1.3-1,1.9-2.4,1.9H46c-3,0-5.6,2.3-6.4,6.4L36,76.6c-1.4,8.3-6.5,14.8-12.8,17.1c4.5,1.8,8.1,9.3,6.6,17.5l-3.5,20.1
		c-0.6,3.8,0.3,5,3.3,5h3c1.4,0,2.1,1,1.9,2.4l-2.1,11.6c-0.1,1.3-1,1.9-2.3,1.9L24.2,152.3L24.2,152.3z"/>
</g>
<g>
	<path class="st0" d="M101.8,140.1c-25.4,0-39.4-17.3-35.4-40.6l3.7-20.1c3.7-20.8,19.6-35,40.4-35c6.5,0,12.6,1.4,17,3.7l5.8-32.6
		c0.3-1.8,1.4-2.8,3.2-2.8h20.3c2.1,0,3.2,1.4,2.8,3.3l-20.1,114.5c-0.2,1.6-1.1,2.6-2.6,3.2C126.9,137.7,113.4,140.1,101.8,140.1z
		 M104.3,116.8c4.2,0,8.8-0.7,11.6-1.9l7.9-45.2c-2.8-1.9-7.2-3-11.6-3c-8.4,0-13.8,5.3-15.8,15.9l-3.3,18.7
		C91,112.5,94.8,116.8,104.3,116.8z"/>
	<path class="st0" d="M222.6,44.4c22.4,0,38.3,11.9,33.6,37.6l-3,17c-0.4,1.8-1.4,2.6-3.2,2.6h-48.7l-0.5,2.5
		c-1.8,9.3,2.5,13.8,12.1,13.8c7.7,0,15.8-2.8,22.8-7c1.8-1.2,3.2-1.1,4,0.9l7.2,13.5c0.7,1.8,0.5,3.3-1.1,4.2
		c-9.5,6.5-21.4,10.7-36.6,10.7c-22.9,0-38.9-14-34.8-36.8L179,78C183.2,55,201.4,44.4,222.6,44.4z M231,79.7
		c1.2-7-1.8-13.1-10.7-13.1c-7.5,0-13.3,4.6-14.9,12.8l-0.9,4.7h25.6L231,79.7z"/>
	<path class="st0" d="M309.6,140.1c-14.5,0-25.9-3.9-35.5-11.7c-1.6-1.2-1.6-2.8-0.5-4.2l10-13.7c1.2-1.6,2.6-1.8,4.2-0.7
		c6.8,5.1,14.5,7.5,22.8,7.5c8.4,0,12.6-2.6,13.5-6.7c1.2-5.4-4.9-6.8-11.9-8.4c-17.2-3.5-30.8-13.8-27-32.7
		c3.7-17.7,18.4-25.2,39.6-25.2c12.1,0,21.4,2.6,30.8,8.1c1.8,1.1,1.9,2.6,0.7,4.2l-10.4,13.8c-1.1,1.6-2.5,1.8-4.2,0.9
		c-5.4-3.2-12.1-4.7-19.4-4.7c-6.5,0-10.5,1.4-11.2,5.8c-1,5.3,4.6,6.8,13,8.8c13.5,3,30.3,11.4,26.6,31.9
		C347.1,131.5,331.5,140.1,309.6,140.1z"/>
	<path class="st0" d="M407,140.1c-24.5,0-36.9-14-33.4-33.1c3-17,17.3-24.5,39.7-24.5c5.3,0,10.5,0.5,14.9,1.4l0.3-2.8
		c1.6-8.6-0.9-13.3-11.9-13.3c-7.7,0-15.6,1.6-20.8,4c-1.9,0.9-3.3,0.5-4-1.4l-5.4-14.4c-0.5-1.6-0.5-2.8,0.5-3.5
		c8.4-5.1,21.5-8.2,35.7-8.2c23.8,0,36.1,15.8,31.3,42l-7.9,44.3c-0.4,1.6-1.1,2.8-2.6,3.3C433.4,137.5,420.4,140.1,407,140.1z
		 M410.3,118.2c4,0,8.9-0.7,12.1-1.4l2.5-15.2c-3.3-0.7-7.4-1.2-11.2-1.2c-8.6,0-13.1,2.8-14,8.1
		C398.4,115.1,402.6,118.2,410.3,118.2z"/>
	<path class="st0" d="M531.8,33.5c-7.4,0-11.6,4-13.1,12.3l-0.5,3.5h15.4c1.9,0,3,1.2,2.8,3.3l-2.8,16.1c-0.3,1.8-1.4,2.8-3.3,2.8
		h-16.1L502.8,135c-0.2,1.8-1.2,2.8-3.2,2.8h-20.3c-2.1,0-3.2-1.4-2.8-3.3l16.3-91.2c3.9-21.7,17-32.9,38.7-32.9c4,0,8.1,0.2,11,0.7
		c1.9,0.4,2.8,1.6,2.5,3.7l-3,16.6c-0.2,2.1-1.2,2.8-2.8,2.6C537,33.7,534.1,33.5,531.8,33.5z"/>
	<path class="st0" d="M550.5,137.8c-1.9,0-3.2-1.4-2.8-3.3l15.1-85.1c0.4-1.8,1.4-2.6,3.3-2.6h20.3c1.9,0,3.2,1.2,2.8,3.2L574,135.1
		c-0.3,1.8-1.4,2.8-3.2,2.8h-20.3V137.8z M567.5,36.5c-2.6,0-3.3-1.8-1.8-3.7l18.7-23.1c1-1.2,2.3-1.8,3.9-1.8h18.2
		c2.6,0,3.5,1.9,1.6,3.9l-23.3,23.1c-1.1,1.2-2.1,1.6-3.7,1.6H567.5z"/>
	<path class="st0" d="M643.5,140.1c-23.5,0-37.6-17.5-33.6-39.7l3.7-21.7c3.9-21.2,21-34.3,45.3-34.3c24,0,38,17.7,34.3,39l-4,22.1
		C685.1,127.5,669.2,140.1,643.5,140.1z M646.5,117.2c9.1,0,14.7-4.9,16.1-13.1l4-22.4c1.4-7.9-2.3-14.4-10.7-14.4
		s-14.4,5.3-15.8,13.1l-4,22.6C634.5,111.6,638.2,117.2,646.5,117.2z"/>
</g>
<g>
	<path class="st0" d="M736.1,34.2c10.9,0,16.5,7,14.3,19.9l-3.5,20.1c-1.1,5.6-1,10.8,4.3,11.9c1.4,0.2,2.1,0.9,1.9,2.4l-1.5,9.9
		c-0.1,1.1-1,1.8-2.3,2c-5.5,1.3-8.5,7.5-9.4,13.3l-3.5,20c-2.4,13.5-8.1,18.6-20,18.6h-6.6c-1.4,0-2.1-0.9-2-2.4l2-11.6
		c0.2-1.3,1-1.9,2.4-1.9h2.1c3,0,5.6-2.3,6.4-6.4l3.6-20.1c1.4-8.3,6.5-14.8,12.8-17.1c-4.5-1.8-8.1-9.3-6.6-17.5l3.5-20.1
		c0.6-3.8-0.3-5-3.3-5h-3c-1.4,0-2.1-1-1.9-2.4l2.1-11.6c0.1-1.3,1-1.9,2.3-1.9L736.1,34.2L736.1,34.2z"/>
</g>
<g>
	<path class="st1" d="M60.1,250.5c-13.5,0-20.5-10.6-17.8-26.9l11-62.1c0.3-1.3,1-2,2.3-2h14.5c1.4,0,2.1,1,1.9,2.4l-11,62.8
		c-1.1,6,0.4,9.4,4.9,9.4c0.9,0,1.8,0,2.5,0c1.5-0.1,2.3,0.5,2,2l-2,11.9c-0.3,1.3-0.8,1.9-1.6,2C65,250.3,62.7,250.5,60.1,250.5z"
		/>
	<path class="st1" d="M109.5,250.5c-17.5,0-26.4-10-23.9-23.6c2.1-12.1,12.4-17.5,28.4-17.5c3.8,0,7.5,0.4,10.6,1l0.3-2
		c1.1-6.1-0.6-9.5-8.5-9.5c-5.5,0-11.1,1.1-14.9,2.9c-1.4,0.6-2.4,0.4-2.9-1l-3.9-10.3c-0.4-1.1-0.4-2,0.4-2.5
		c6-3.6,15.4-5.9,25.5-5.9c17,0,25.8,11.3,22.4,30l-5.6,31.6c-0.2,1.1-0.7,2-1.9,2.4C128.4,248.6,119.1,250.5,109.5,250.5z
		 M111.8,234.9c2.9,0,6.4-0.5,8.6-1l1.8-10.9c-2.4-0.5-5.3-0.9-8-0.9c-6.1,0-9.4,2-10,5.8C103.3,232.6,106.3,234.9,111.8,234.9z"/>
	<path class="st1" d="M185.5,201.2l-4.3,24.1c-1,5.6,1,8.6,6.1,8.6c1,0,2.1,0,3.4,0c1.5-0.1,2.4,0.5,2,2.1l-2,11.6
		c-0.2,1.3-0.9,2-2.1,2.1c-1.9,0.4-4.3,0.6-6.4,0.6c-13.9,0-22.8-8.4-19.5-26.6l9.4-53.6c0.2-1.3,1-2,2.4-2h12.3
		c1.5,0,2.3,0.9,2.1,2.3l-0.8,14.9h10c1.5,0,2.3,1,2,2.4l-2,11.5c-0.2,1.4-1,2-2.4,2L185.5,201.2L185.5,201.2z"/>
	<path class="st1" d="M233.6,250.5c-17.5,0-26.4-10-23.9-23.6c2.1-12.1,12.4-17.5,28.4-17.5c3.8,0,7.5,0.4,10.6,1l0.3-2
		c1.1-6.1-0.6-9.5-8.5-9.5c-5.5,0-11.1,1.1-14.9,2.9c-1.4,0.6-2.4,0.4-2.9-1l-3.9-10.3c-0.4-1.1-0.4-2,0.4-2.5
		c6-3.6,15.4-5.9,25.5-5.9c17,0,25.8,11.3,22.4,30l-5.6,31.6c-0.2,1.1-0.8,2-1.9,2.4C252.5,248.6,243.3,250.5,233.6,250.5z
		 M236,234.9c2.9,0,6.4-0.5,8.6-1l1.8-10.9c-2.4-0.5-5.3-0.9-8-0.9c-6.1,0-9.4,2-10,5.8C227.5,232.6,230.5,234.9,236,234.9z"/>
	<path class="st1" d="M353.8,182.1c17.3,0,26,12.8,23,30.5l-6.3,34.3c-0.1,1.2-1,2-2.3,2h-14.1c-1.5,0-2.1-1-2-2.4l6.4-36.5
		c1.4-8-1.5-11.5-7.5-11.5c-3,0-6.1,1-8.4,2.3c0.6,3.5,0.6,7.6-0.1,11.9l-6.1,34.3c-0.1,1.2-1,2-2.3,2H320c-1.5,0-2.3-1-2-2.4
		l6.4-36.5c1.4-8-1.3-11.5-6.9-11.5c-2.8,0-5.5,0.6-7.3,1.5l-8.5,46.9c-0.3,1.4-1,2-2.3,2H285c-1.4,0-2.1-0.9-1.9-2.4l10.4-57.1
		c0.3-1,0.8-1.8,1.9-2.3c7.4-3.1,16.5-5,24.3-5c6.3,0,11.6,1.9,15.5,5C341.2,184,347.6,182.1,353.8,182.1z"/>
	<path class="st1" d="M448.5,264.5c-0.1,1.3-1,2-2.3,2h-55.8c-1.4,0-2.1-1-1.9-2.4l2-11.6c0.1-1.4,1-2,2.3-2h55.8
		c1.5,0,2.3,0.9,2,2.4L448.5,264.5z"/>
</g>
</svg>
