<?xml version="1.0" encoding="utf-8"?>
<!-- Generator: Adobe Illustrator 24.0.2, SVG Export Plug-In . SVG Version: 6.00 Build 0)  -->
<svg version="1.1" id="Capa_1" xmlns="http://www.w3.org/2000/svg" xmlns:xlink="http://www.w3.org/1999/xlink" x="0px" y="0px"
	 viewBox="0 0 1000 1000" style="enable-background:new 0 0 1000 1000;" xml:space="preserve">
<style type="text/css">
	.st0{fill:none;stroke:#93278F;stroke-linecap:round;stroke-linejoin:round;}
</style>
<path class="st0" d="M478.6,274.5c37.7,1,70.3,20.2,83.7,56.9c12.6,34.4,4.5,73.4-10.8,104.3C522.1,495,450.6,552.4,378.5,542.8"/>
<path class="st0" d="M378.6,542.7c-35.7-4.7-63.3-26.6-73.7-61.5c-9.8-33.1-1.9-69.3,12.6-98.6c28.2-56.9,92.9-109.8,161-108.1"/>
<path class="st0" d="M428,539.1c6.9-68.5,68-131.4,136.7-139.7"/>
<path class="st0" d="M454.8,210.5c0.8,0.9,1.7,1.7,2.5,2.5"/>
<path class="st0" d="M458.9,214.4c11.4,9.7,23.1,12.3,37.5,12.4"/>
<path class="st0" d="M504.2,226.5c1.3-0.1,2.5-0.3,3.8-0.4"/>
<path class="st0" d="M508.2,226.1c9.6-1.3,18.6-3.8,27.5-7.5"/>
<path class="st0" d="M536.6,218.2c5.3-2.2,10.4-4.7,15.3-7.6"/>
<path class="st0" d="M557,207.6c1.6-1.3,3.7-2.7,5.2-4"/>
<path class="st0" d="M685.1,676.1c-17.2,14.4-53.1,22.7-73.3,26.5"/>
<path class="st0" d="M565.5,732.1c9.4-1.3,18.7-3,27.9-5"/>
<path class="st0" d="M601.7,725c5.3-1.3,10.5-3,15.6-4.7"/>
<path class="st0" d="M617.3,720.3c1.2-0.4,2.2-0.8,3.4-1.3"/>
<path class="st0" d="M630,714.9c1.8-0.9,3.5-1.8,5.2-2.8"/>
<path class="st0" d="M636,711.7c1.9-1.2,3.7-2.4,5.5-3.8"/>
<line class="st0" x1="611.8" y1="702.6" x2="611.3" y2="702.5"/>
<path class="st0" d="M611.8,702.6c-14.1,12.2-29.1,21.8-46.1,29.5"/>
<line class="st0" x1="504.1" y1="219.7" x2="507.6" y2="210.4"/>
<line class="st0" x1="507.6" y1="210.4" x2="516.6" y2="210.5"/>
<path class="st0" d="M489.3,216.2c1.3-3.4,5.9-7.1,9.8-5.5"/>
<path class="st0" d="M487.3,213.8c2.7-6.7,14.2-7.2,11.5,0"/>
<path class="st0" d="M489,219.3c-0.2-1.1-0.1-2.1,0.3-3"/>
<path class="st0" d="M498.9,213.8c-1.3,3.4-3.3,5-7,5.7c-4.3,0.8-6.2-1.7-4.6-5.7"/>
<line class="st0" x1="505.7" y1="208" x2="517.4" y2="208"/>
<line class="st0" x1="517.4" y1="208" x2="513.1" y2="219.8"/>
<line class="st0" x1="513.1" y1="219.8" x2="501.4" y2="219.7"/>
<line class="st0" x1="501.4" y1="219.7" x2="505.7" y2="208"/>
<path class="st0" d="M450,204.1c0.5,1,1,1.6,1.5,2.6"/>
<path class="st0" d="M451.8,207c0.9,1.3,1.9,2.4,2.9,3.6"/>
<path class="st0" d="M457.3,213c0.5,0.4,1.1,1,1.6,1.4"/>
<path class="st0" d="M496.4,226.8c2.6,0,5.3-0.1,7.9-0.3"/>
<path class="st0" d="M508,226.1c0.1,0,0.2,0,0.3,0"/>
<path class="st0" d="M535.8,218.6c0.3-0.1,0.5-0.3,0.8-0.4"/>
<path class="st0" d="M551.9,210.6c1.7-1,3.4-2.1,5.1-3.1"/>
<line class="st0" x1="505.7" y1="208" x2="507.6" y2="210.4"/>
<path class="st0" d="M629.6,715.2c-56.1,29.1-200.1,31.4-256.8,2.4"/>
<path class="st0" d="M621.5,746.2c-2.5,9.1-8.9,12.2-16.1,16.2"/>
<path class="st0" d="M605.4,762.4c-30,16.5-82.3,20.5-114.5,19.9c-19.7-0.4-39-2.1-58.2-6.3c-12-2.6-45-10.6-49.8-26.9"/>
<path class="st0" d="M413.8,730.7C379,710,357,670,344.4,634.4"/>
<path class="st0" d="M344.5,634.4c-106.7-18.2-139.4-118.6-113.1-212.8c24.3-87,93.9-164.3,175-201.9"/>
<path class="st0" d="M406.4,219.8c32.8-15.2,65-24,101.6-24.1"/>
<path class="st0" d="M508,195.7c33.5-0.1,61.7,6.3,90.2,25.1"/>
<path class="st0" d="M598.2,220.8c46.3,30.7,65.1,82.4,63.5,135c-1.6,52-22.6,103.2-51.7,145c-54.7,78.8-161.1,151.5-265.6,133.6"/>
<path class="st0" d="M612.5,701.5c20.1-3.8,58.9-12.5,75.6-28.1"/>
<path class="st0" d="M688.2,673.3c0.4-0.4,1-0.9,1.4-1.3"/>
<path class="st0" d="M564.8,732.2c17.6-7.9,33.2-17.9,47.6-30.7"/>
<path class="st0" d="M630,714.9c-3,1.5-6.2,2.9-9.3,4"/>
<path class="st0" d="M617.3,720.3c-0.1,0-0.1,0-0.2,0.1"/>
<path class="st0" d="M601.7,725c-2.7,0.7-5.5,1.3-8.2,2"/>
<path class="st0" d="M565.5,732.1c-0.1,0-0.3,0-0.4,0.1"/>
<path class="st0" d="M683.8,677.4c-15,13.4-31,24.9-48.5,34.8"/>
<path class="st0" d="M640.3,709.2c-8.9,11.3-14.9,23.2-18.8,37"/>
<path class="st0" d="M382.9,749.1c-4.1-13.8-10.4-25.6-19.7-36.6"/>
<path class="st0" d="M372.8,717.7c-78-39.8-132.7-114.1-147.2-200.2"/>
<path class="st0" d="M775.8,478.5c-1.9,74.1-33.4,144.3-87.7,194.9"/>
<path class="st0" d="M538.4,197.9c138.9,20,240.9,140.6,237.4,280.6"/>
</svg>
