<svg id="Capa_1" data-name="Capa 1" xmlns="http://www.w3.org/2000/svg" viewBox="0 0 640.99 155.97"><defs><style>.cls-1{fill:#1d1d1b;}.cls-1,.cls-2,.cls-4,.cls-6,.cls-7,.cls-8{fill-rule:evenodd;}.cls-2{fill:#e20613;}.cls-3,.cls-7{fill:none;}.cls-3{stroke:#e20613;stroke-miterlimit:3.86;stroke-width:12.2px;}.cls-4,.cls-5{fill:#9c9c9c;}.cls-6{fill:#b1b1b1;}.cls-7{stroke:#006189;stroke-miterlimit:3.86;stroke-width:3.49px;}.cls-8{fill:#006189;}.cls-9{fill:#008e5b;}</style></defs><title>LOGO_PROTEINLAB</title><path class="cls-1" d="M316.49,404.9a27,27,0,0,1-1.41,9.12,19.39,19.39,0,0,1-4.89,8,12.44,12.44,0,0,1-8.72,3.44,13.83,13.83,0,0,1-9.16-3.23,18.33,18.33,0,0,1-5.18-7.73,27.67,27.67,0,0,1,.12-19.07,17.87,17.87,0,0,1,5.33-7.6,14.06,14.06,0,0,1,9-3.05,13.1,13.1,0,0,1,8.74,3,16.65,16.65,0,0,1,4.81,7.51A28.49,28.49,0,0,1,316.49,404.9Zm-41,49.71h10v-29.8h.21a17,17,0,0,0,6.62,6.23q4.36,2.41,11.49,2.48,8.18-.13,13.33-4.3a24.3,24.3,0,0,0,7.58-10.83,40.94,40.94,0,0,0,2.4-14.24,35.15,35.15,0,0,0-2.57-13.6,22.88,22.88,0,0,0-7.77-10q-5.2-3.77-13.08-3.88a23.86,23.86,0,0,0-11.81,2.95,19.22,19.22,0,0,0-6.62,6h-.21V378h-9.57Z" transform="translate(-275.49 -342.25)"/><path class="cls-1" d="M353,432.26h10v-24.7q.09-10.33,4-16.18a12.61,12.61,0,0,1,10.75-6,17.93,17.93,0,0,1,2.73.2,12.35,12.35,0,0,1,2.81.76v-8.93q-1.53-.33-3-.53a26.9,26.9,0,0,0-3.62-.21,14.67,14.67,0,0,0-8.24,2.72,17.69,17.69,0,0,0-5.92,7h-.21V378H353Z" transform="translate(-275.49 -342.25)"/><path class="cls-1" d="M413.83,405.11a24.59,24.59,0,0,1,2-9.87,18.52,18.52,0,0,1,5.82-7.5,15.21,15.21,0,0,1,9.2-3,15,15,0,0,1,9.13,3,18.57,18.57,0,0,1,5.79,7.5,24.68,24.68,0,0,1,2,9.87,26.05,26.05,0,0,1-1.79,9.58,18,18,0,0,1-5.55,7.64,15.32,15.32,0,0,1-9.6,3.12,15.5,15.5,0,0,1-9.67-3.12,17.91,17.91,0,0,1-5.58-7.64A26,26,0,0,1,413.83,405.11Zm-10.63,0a30,30,0,0,0,3.53,14.28,26.79,26.79,0,0,0,9.68,10.23,28.56,28.56,0,0,0,28.86,0,26.81,26.81,0,0,0,9.65-10.23,30,30,0,0,0,3.53-14.28q-.18-12.61-7.59-20.4t-20-8q-12.64.23-20.07,8T403.2,405.11Z" transform="translate(-275.49 -342.25)"/><path class="cls-2" d="M513.15,378H498.78V362.21l-10,3.19V378H476.54V386h12.25v31.74q.08,8.11,4.48,11.94t12.22,3.8a23.53,23.53,0,0,0,4.62-.5q2.2-.47,3.9-1v-8.51a11.77,11.77,0,0,1-2.81,1.32,13.17,13.17,0,0,1-4,.6,8,8,0,0,1-5.92-2.49q-2.39-2.47-2.49-7.2V386h14.37Z" transform="translate(-275.49 -342.25)"/><path class="cls-2" d="M545.16,399.9a21.82,21.82,0,0,1,1.94-7,14.55,14.55,0,0,1,4.68-5.72,13.54,13.54,0,0,1,8-2.36q6.51.17,10,4.45a16.51,16.51,0,0,1,3.53,10.68ZM579.77,420a25.43,25.43,0,0,1-6.8,3.48,30.24,30.24,0,0,1-9.92,2,18,18,0,0,1-12.5-5q-5.16-4.9-5.39-13.09h38.76a49.55,49.55,0,0,0-2.19-15.71,21.63,21.63,0,0,0-7.51-10.88q-5.26-4-14.25-4.07-11.66.21-18.47,7.7t-7,19.76q-.05,13.44,6.82,21.32t21.28,8.06a40.51,40.51,0,0,0,10.49-1.24,68.7,68.7,0,0,0,6.65-2.27Z" transform="translate(-275.49 -342.25)"/><path class="cls-1" d="M621.63,354.54H610.36v11.27h11.27ZM611,432.26h10V378H611Z" transform="translate(-275.49 -342.25)"/><path class="cls-1" d="M651.72,432.26h10V407.13q0-10.06,4-16.13t12.53-6.23q6.45.37,9,5.14t2.48,14.24v28.11h10V400q0-11-4.89-17.12t-15.43-6.18a22.37,22.37,0,0,0-10.61,2.63,16.64,16.64,0,0,0-7.18,7.26h-.21V378h-9.68Z" transform="translate(-275.49 -342.25)"/><line class="cls-3" x1="210.36" y1="6.6" x2="298.17" y2="6.6"/><path class="cls-4" d="M281.9,485.29h-2.39v-2.62l-1.66.53v2.09h-2v1.34h2v5.27a2.52,2.52,0,0,0,.74,2,3,3,0,0,0,2,.63,3.75,3.75,0,0,0,.77-.08c.24-.05.46-.11.65-.16v-1.41a2,2,0,0,1-.47.22,2.22,2.22,0,0,1-.67.1,1.32,1.32,0,0,1-1-.41,1.7,1.7,0,0,1-.41-1.2v-4.93h2.39Z" transform="translate(-275.49 -342.25)"/><path class="cls-4" d="M285,488.93a3.62,3.62,0,0,1,.32-1.17,2.42,2.42,0,0,1,.78-.95,2.25,2.25,0,0,1,1.32-.39,2.1,2.1,0,0,1,1.66.74,2.74,2.74,0,0,1,.59,1.78Zm5.75,3.34a4.23,4.23,0,0,1-1.13.58,5,5,0,0,1-1.65.33,3,3,0,0,1-3-3h6.43a8.22,8.22,0,0,0-.36-2.61,3.59,3.59,0,0,0-1.25-1.81,3.91,3.91,0,0,0-2.37-.68,4,4,0,0,0-3.07,1.28,4.78,4.78,0,0,0-1.16,3.28,5.17,5.17,0,0,0,1.13,3.54,4.52,4.52,0,0,0,3.53,1.34,6.72,6.72,0,0,0,1.74-.21,11.43,11.43,0,0,0,1.1-.38Z" transform="translate(-275.49 -342.25)"/><path class="cls-4" d="M299.46,485.43a4.76,4.76,0,0,0-.93-.25,6.37,6.37,0,0,0-1.08-.11,4.51,4.51,0,0,0-3.33,1.33,4.81,4.81,0,0,0-1.26,3.39,5,5,0,0,0,.59,2.37,4.46,4.46,0,0,0,1.61,1.7,4.59,4.59,0,0,0,2.4.65,6.75,6.75,0,0,0,1-.07,3.83,3.83,0,0,0,1.08-.3l-.12-1.48a3.14,3.14,0,0,1-.87.38,3.51,3.51,0,0,1-.91.13,2.88,2.88,0,0,1-1.73-.52,2.92,2.92,0,0,1-1-1.27,4.19,4.19,0,0,1-.3-1.59,4,4,0,0,1,.34-1.64,3.06,3.06,0,0,1,1-1.25,2.64,2.64,0,0,1,1.58-.49,4.2,4.2,0,0,1,.86.1,5.3,5.3,0,0,1,.94.29Z" transform="translate(-275.49 -342.25)"/><path class="cls-4" d="M301.34,494.3H303v-4.17a4.75,4.75,0,0,1,.66-2.68,2.38,2.38,0,0,1,2.08-1,1.68,1.68,0,0,1,1.5.85,5,5,0,0,1,.41,2.36v4.67h1.66v-5.36a4.36,4.36,0,0,0-.81-2.84,3.14,3.14,0,0,0-2.56-1,3.73,3.73,0,0,0-1.76.44,2.77,2.77,0,0,0-1.19,1.2h0v-1.43h-1.61Z" transform="translate(-275.49 -342.25)"/><path class="cls-4" d="M313.2,489.79a4.08,4.08,0,0,1,.34-1.64,3.09,3.09,0,0,1,1-1.25,2.52,2.52,0,0,1,1.53-.49,2.49,2.49,0,0,1,1.52.49,3.09,3.09,0,0,1,1,1.25,4.08,4.08,0,0,1,.34,1.64,4.32,4.32,0,0,1-.3,1.59,3,3,0,0,1-.92,1.27,2.54,2.54,0,0,1-1.59.52,2.57,2.57,0,0,1-1.61-.52,3,3,0,0,1-.93-1.27A4.31,4.31,0,0,1,313.2,489.79Zm-1.77,0a5,5,0,0,0,.59,2.37,4.47,4.47,0,0,0,1.61,1.7,4.75,4.75,0,0,0,4.79,0,4.46,4.46,0,0,0,1.6-1.7,5,5,0,0,0,.59-2.37,4.81,4.81,0,0,0-1.26-3.39,4.82,4.82,0,0,0-6.65,0A4.81,4.81,0,0,0,311.44,489.79Z" transform="translate(-275.49 -342.25)"/><rect class="cls-5" x="47.45" y="138.79" width="1.66" height="13.26"/><path class="cls-4" d="M328.7,489.79a4.08,4.08,0,0,1,.34-1.64,3.08,3.08,0,0,1,1-1.25,2.52,2.52,0,0,1,1.53-.49,2.49,2.49,0,0,1,1.52.49,3.09,3.09,0,0,1,1,1.25,4.09,4.09,0,0,1,.34,1.64,4.32,4.32,0,0,1-.3,1.59,3,3,0,0,1-.92,1.27,2.54,2.54,0,0,1-1.59.52,2.57,2.57,0,0,1-1.61-.52,3,3,0,0,1-.93-1.27A4.31,4.31,0,0,1,328.7,489.79Zm-1.77,0a5,5,0,0,0,.59,2.37,4.46,4.46,0,0,0,1.61,1.7,4.75,4.75,0,0,0,4.79,0,4.46,4.46,0,0,0,1.6-1.7,5,5,0,0,0,.59-2.37,4.81,4.81,0,0,0-1.26-3.39,4.82,4.82,0,0,0-6.65,0A4.81,4.81,0,0,0,326.94,489.79Z" transform="translate(-275.49 -342.25)"/><path class="cls-4" d="M341.91,493a2.24,2.24,0,0,1-1.84-1,3.76,3.76,0,0,1-.67-2.23,4.54,4.54,0,0,1,.28-1.55,3.16,3.16,0,0,1,.84-1.28,2.07,2.07,0,0,1,1.4-.53,2.31,2.31,0,0,1,2,1,4.36,4.36,0,0,1,.65,2.45,3.36,3.36,0,0,1-.73,2.16A2.44,2.44,0,0,1,341.91,493Zm4.29-7.67h-1.54v1.34h0a2.6,2.6,0,0,0-1.07-1.14,3.87,3.87,0,0,0-1.9-.41,3.65,3.65,0,0,0-2.25.73,4.25,4.25,0,0,0-1.34,1.79,6,6,0,0,0-.44,2.27,5.55,5.55,0,0,0,.43,2.19,3.74,3.74,0,0,0,1.28,1.62,3.67,3.67,0,0,0,2.15.63,4.19,4.19,0,0,0,1.68-.35,3.41,3.41,0,0,0,1.35-1h0v.88a3.31,3.31,0,0,1-.74,2.26,2.65,2.65,0,0,1-2.05.83,6.14,6.14,0,0,1-1.61-.19,9.92,9.92,0,0,1-1.65-.62l-.18,1.54a12.56,12.56,0,0,0,1.8.49,7.78,7.78,0,0,0,1.43.12,4.89,4.89,0,0,0,3.54-1.13,4.25,4.25,0,0,0,1.11-3.18Z" transform="translate(-275.49 -342.25)"/><path class="cls-4" d="M349.14,494.3h1.66v-9h-1.66ZM348.81,484H350l2.31-2.54h-1.93Z" transform="translate(-275.49 -342.25)"/><path class="cls-4" d="M359.09,490.8a2.34,2.34,0,0,1-.64,1.69,2.56,2.56,0,0,1-1.87.68,1.9,1.9,0,0,1-1.13-.38,1.38,1.38,0,0,1,.06-2.25,3.25,3.25,0,0,1,1.31-.48A7.51,7.51,0,0,1,358,490l.53,0,.53,0Zm-4.85-3.46a3.9,3.9,0,0,1,1.21-.67,4.33,4.33,0,0,1,1.41-.25,2.2,2.2,0,0,1,1.74.59,2.59,2.59,0,0,1,.49,1.76l-.88,0h-.88a6.47,6.47,0,0,0-1.85.27,3.81,3.81,0,0,0-1.64.93,2.45,2.45,0,0,0-.71,1.78,2.56,2.56,0,0,0,.92,2.14,3.82,3.82,0,0,0,2.38.67,3.49,3.49,0,0,0,1.82-.48,3.24,3.24,0,0,0,1-.89h0v1.17h1.55c0-.12,0-.33,0-.6s0-.66,0-1.17V488.8a4,4,0,0,0-.84-2.79,3.61,3.61,0,0,0-2.78-.94,5.49,5.49,0,0,0-1.6.24,6,6,0,0,0-1.37.61Z" transform="translate(-275.49 -342.25)"/><path class="cls-4" d="M369.42,488.93a3.62,3.62,0,0,1,.32-1.17,2.42,2.42,0,0,1,.78-.95,2.25,2.25,0,0,1,1.32-.39,2.1,2.1,0,0,1,1.66.74,2.74,2.74,0,0,1,.59,1.78Zm5.75,3.34a4.24,4.24,0,0,1-1.13.58,5,5,0,0,1-1.65.33,3,3,0,0,1-3-3h6.44a8.24,8.24,0,0,0-.36-2.61,3.59,3.59,0,0,0-1.25-1.81,3.91,3.91,0,0,0-2.37-.68,4,4,0,0,0-3.07,1.28,4.78,4.78,0,0,0-1.16,3.28,5.17,5.17,0,0,0,1.13,3.54,4.52,4.52,0,0,0,3.53,1.34,6.72,6.72,0,0,0,1.74-.21,11.41,11.41,0,0,0,1.1-.38Z" transform="translate(-275.49 -342.25)"/><path class="cls-4" d="M384.75,481.4h-1.87v1.87h1.87ZM383,494.3h1.66v-9H383Z" transform="translate(-275.49 -342.25)"/><path class="cls-4" d="M387.57,494.3h1.66v-4.17a4.75,4.75,0,0,1,.66-2.68,2.38,2.38,0,0,1,2.08-1,1.68,1.68,0,0,1,1.5.85,5,5,0,0,1,.41,2.36v4.67h1.66v-5.36a4.37,4.37,0,0,0-.81-2.84,3.14,3.14,0,0,0-2.56-1,3.73,3.73,0,0,0-1.76.44,2.77,2.77,0,0,0-1.19,1.2h0v-1.43h-1.61Z" transform="translate(-275.49 -342.25)"/><path class="cls-4" d="M398.27,494.3h1.66v-4.17a4.74,4.74,0,0,1,.66-2.68,2.37,2.37,0,0,1,2.08-1,1.68,1.68,0,0,1,1.5.85,5,5,0,0,1,.41,2.36v4.67h1.66v-5.36a4.37,4.37,0,0,0-.81-2.84,3.14,3.14,0,0,0-2.56-1,3.73,3.73,0,0,0-1.76.44,2.77,2.77,0,0,0-1.19,1.2h0v-1.43h-1.61Z" transform="translate(-275.49 -342.25)"/><path class="cls-4" d="M410.13,489.79a4.08,4.08,0,0,1,.34-1.64,3.09,3.09,0,0,1,1-1.25,2.52,2.52,0,0,1,1.53-.49,2.49,2.49,0,0,1,1.51.49,3.09,3.09,0,0,1,1,1.25,4.08,4.08,0,0,1,.34,1.64,4.33,4.33,0,0,1-.3,1.59,3,3,0,0,1-.92,1.27,2.54,2.54,0,0,1-1.59.52,2.57,2.57,0,0,1-1.61-.52,3,3,0,0,1-.93-1.27A4.3,4.3,0,0,1,410.13,489.79Zm-1.77,0a5,5,0,0,0,.59,2.37,4.46,4.46,0,0,0,1.61,1.7,4.75,4.75,0,0,0,4.79,0,4.46,4.46,0,0,0,1.6-1.7,5,5,0,0,0,.59-2.37,4.81,4.81,0,0,0-1.26-3.39,4.81,4.81,0,0,0-6.65,0A4.8,4.8,0,0,0,408.36,489.79Z" transform="translate(-275.49 -342.25)"/><polygon class="cls-4" points="151.4 143.03 149.73 143.03 147.24 150.39 147.21 150.39 144.77 143.03 142.95 143.03 146.18 152.05 148.16 152.05 151.4 143.03"/><path class="cls-4" d="M433.75,490.8a2.34,2.34,0,0,1-.64,1.69,2.56,2.56,0,0,1-1.87.68,1.9,1.9,0,0,1-1.12-.38,1.38,1.38,0,0,1,.06-2.25,3.25,3.25,0,0,1,1.31-.48,7.52,7.52,0,0,1,1.21-.1l.53,0,.53,0Zm-4.85-3.46a3.9,3.9,0,0,1,1.21-.67,4.33,4.33,0,0,1,1.41-.25,2.2,2.2,0,0,1,1.74.59,2.59,2.59,0,0,1,.49,1.76l-.88,0H432a6.47,6.47,0,0,0-1.85.27,3.81,3.81,0,0,0-1.64.93,2.45,2.45,0,0,0-.71,1.78,2.57,2.57,0,0,0,.92,2.14,3.82,3.82,0,0,0,2.38.67,3.49,3.49,0,0,0,1.82-.48,3.24,3.24,0,0,0,1-.89h0v1.17h1.55c0-.12,0-.33,0-.6s0-.66,0-1.17V488.8a4,4,0,0,0-.84-2.79,3.61,3.61,0,0,0-2.78-.94,5.49,5.49,0,0,0-1.6.24,6,6,0,0,0-1.37.61Z" transform="translate(-275.49 -342.25)"/><path class="cls-4" d="M444,485.43a4.77,4.77,0,0,0-.93-.25,6.38,6.38,0,0,0-1.08-.11,4.51,4.51,0,0,0-3.33,1.33,4.8,4.8,0,0,0-1.26,3.39,5,5,0,0,0,.59,2.37,4.46,4.46,0,0,0,1.61,1.7,4.59,4.59,0,0,0,2.4.65,6.75,6.75,0,0,0,1-.07,3.83,3.83,0,0,0,1.08-.3l-.12-1.48a3.13,3.13,0,0,1-.87.38,3.52,3.52,0,0,1-.91.13,2.88,2.88,0,0,1-1.73-.52,2.92,2.92,0,0,1-1-1.27,4.2,4.2,0,0,1-.3-1.59,4,4,0,0,1,.34-1.64,3.06,3.06,0,0,1,1-1.25,2.64,2.64,0,0,1,1.58-.49,4.2,4.2,0,0,1,.86.1,5.28,5.28,0,0,1,.94.29Z" transform="translate(-275.49 -342.25)"/><path class="cls-4" d="M447.83,481.4H446v1.87h1.87Zm-1.77,12.9h1.66v-9h-1.66Z" transform="translate(-275.49 -342.25)"/><path class="cls-4" d="M451.82,489.79a4.08,4.08,0,0,1,.34-1.64,3.09,3.09,0,0,1,1-1.25,2.52,2.52,0,0,1,1.53-.49,2.49,2.49,0,0,1,1.52.49,3.09,3.09,0,0,1,1,1.25,4.07,4.07,0,0,1,.34,1.64,4.32,4.32,0,0,1-.3,1.59,3,3,0,0,1-.92,1.27,2.54,2.54,0,0,1-1.59.52,2.57,2.57,0,0,1-1.61-.52,3,3,0,0,1-.93-1.27A4.31,4.31,0,0,1,451.82,489.79Zm-1.77,0a5,5,0,0,0,.59,2.37,4.47,4.47,0,0,0,1.61,1.7,4.75,4.75,0,0,0,4.79,0,4.47,4.47,0,0,0,1.6-1.7,5,5,0,0,0,.59-2.37A4.82,4.82,0,0,0,458,486.4a4.81,4.81,0,0,0-6.65,0A4.8,4.8,0,0,0,450.06,489.79Zm3.43-5.76h1.18l2.31-2.54h-1.93Z" transform="translate(-275.49 -342.25)"/><path class="cls-4" d="M461.36,494.3H463v-4.17a4.74,4.74,0,0,1,.66-2.68,2.38,2.38,0,0,1,2.08-1,1.68,1.68,0,0,1,1.5.85,5,5,0,0,1,.41,2.36v4.67h1.66v-5.36a4.37,4.37,0,0,0-.81-2.84,3.14,3.14,0,0,0-2.56-1,3.73,3.73,0,0,0-1.76.44,2.77,2.77,0,0,0-1.19,1.2h0v-1.43h-1.61Z" transform="translate(-275.49 -342.25)"/><path class="cls-4" d="M483.66,489.76a4.5,4.5,0,0,1-.23,1.51,3.23,3.23,0,0,1-.81,1.33,2.07,2.07,0,0,1-1.45.57,2.3,2.3,0,0,1-1.52-.54,3.05,3.05,0,0,1-.86-1.29,4.59,4.59,0,0,1,0-3.16,3,3,0,0,1,.88-1.26,2.33,2.33,0,0,1,1.49-.51,2.18,2.18,0,0,1,1.45.51,2.75,2.75,0,0,1,.8,1.25A4.72,4.72,0,0,1,483.66,489.76ZM476.86,498h1.66v-4.95h0a2.82,2.82,0,0,0,1.1,1,4,4,0,0,0,1.91.41,3.5,3.5,0,0,0,2.21-.71A4,4,0,0,0,485,492a6.8,6.8,0,0,0,.4-2.37,5.84,5.84,0,0,0-.43-2.26,3.81,3.81,0,0,0-1.29-1.66,3.69,3.69,0,0,0-2.17-.64,4,4,0,0,0-2,.49,3.19,3.19,0,0,0-1.1,1h0v-1.27h-1.59Z" transform="translate(-275.49 -342.25)"/><path class="cls-4" d="M492.91,490.8a2.34,2.34,0,0,1-.64,1.69,2.56,2.56,0,0,1-1.87.68,1.9,1.9,0,0,1-1.13-.38,1.38,1.38,0,0,1,.06-2.25,3.25,3.25,0,0,1,1.31-.48,7.51,7.51,0,0,1,1.21-.1l.53,0,.53,0Zm-4.84-3.46a3.89,3.89,0,0,1,1.21-.67,4.33,4.33,0,0,1,1.41-.25,2.2,2.2,0,0,1,1.74.59,2.59,2.59,0,0,1,.49,1.76l-.88,0h-.88a6.47,6.47,0,0,0-1.85.27,3.82,3.82,0,0,0-1.64.93,2.45,2.45,0,0,0-.71,1.78,2.56,2.56,0,0,0,.92,2.14,3.82,3.82,0,0,0,2.38.67,3.49,3.49,0,0,0,1.82-.48,3.23,3.23,0,0,0,1-.89h0v1.17h1.55c0-.12,0-.33,0-.6s0-.66,0-1.17V488.8a4,4,0,0,0-.84-2.79,3.61,3.61,0,0,0-2.78-.94,5.49,5.49,0,0,0-1.6.24,6,6,0,0,0-1.37.61Z" transform="translate(-275.49 -342.25)"/><path class="cls-4" d="M497.27,494.3h1.66v-4.1a4.83,4.83,0,0,1,.67-2.69,2.09,2.09,0,0,1,1.79-1,2.84,2.84,0,0,1,.45,0,2.08,2.08,0,0,1,.47.13V485.2l-.49-.09a4.53,4.53,0,0,0-.6,0,2.45,2.45,0,0,0-1.37.45,2.94,2.94,0,0,0-1,1.15h0v-1.39h-1.55Z" transform="translate(-275.49 -342.25)"/><path class="cls-4" d="M509.39,490.8a2.34,2.34,0,0,1-.64,1.69,2.56,2.56,0,0,1-1.87.68,1.9,1.9,0,0,1-1.13-.38,1.38,1.38,0,0,1,.06-2.25,3.25,3.25,0,0,1,1.31-.48,7.51,7.51,0,0,1,1.21-.1l.53,0,.53,0Zm-4.85-3.46a3.89,3.89,0,0,1,1.21-.67,4.33,4.33,0,0,1,1.41-.25,2.2,2.2,0,0,1,1.74.59,2.58,2.58,0,0,1,.49,1.76l-.88,0h-.88a6.47,6.47,0,0,0-1.85.27,3.82,3.82,0,0,0-1.64.93,2.45,2.45,0,0,0-.7,1.78,2.56,2.56,0,0,0,.92,2.14,3.82,3.82,0,0,0,2.38.67,3.49,3.49,0,0,0,1.82-.48,3.23,3.23,0,0,0,1-.89h0v1.17h1.55c0-.12,0-.33,0-.6s0-.66,0-1.17V488.8a4,4,0,0,0-.84-2.79,3.61,3.61,0,0,0-2.78-.94,5.49,5.49,0,0,0-1.6.24,6,6,0,0,0-1.37.61Z" transform="translate(-275.49 -342.25)"/><path class="cls-4" d="M519.72,488.93a3.61,3.61,0,0,1,.32-1.17,2.42,2.42,0,0,1,.78-.95,2.25,2.25,0,0,1,1.32-.39,2.1,2.1,0,0,1,1.66.74,2.75,2.75,0,0,1,.59,1.78Zm5.75,3.34a4.24,4.24,0,0,1-1.13.58,5,5,0,0,1-1.65.33,3,3,0,0,1-3-3h6.44a8.23,8.23,0,0,0-.36-2.61,3.59,3.59,0,0,0-1.25-1.81,3.91,3.91,0,0,0-2.37-.68,4,4,0,0,0-3.07,1.28,4.78,4.78,0,0,0-1.16,3.28,5.17,5.17,0,0,0,1.13,3.54,4.52,4.52,0,0,0,3.53,1.34,6.72,6.72,0,0,0,1.74-.21,11.38,11.38,0,0,0,1.1-.38Z" transform="translate(-275.49 -342.25)"/><rect class="cls-5" x="252.98" y="138.79" width="1.66" height="13.26"/><path class="cls-4" d="M539,489.76a4.79,4.79,0,0,1,.23-1.6,2.73,2.73,0,0,1,.8-1.24,2.18,2.18,0,0,1,1.45-.5,2.33,2.33,0,0,1,1.49.51,3,3,0,0,1,.89,1.26,4.55,4.55,0,0,1,.29,1.62,4.49,4.49,0,0,1-.27,1.54,3.05,3.05,0,0,1-.86,1.29,2.3,2.3,0,0,1-1.52.54,2.07,2.07,0,0,1-1.45-.57,3.23,3.23,0,0,1-.81-1.33A4.48,4.48,0,0,1,539,489.76Zm5.22,4.54h1.59V481h-1.66v5.48h0a2.82,2.82,0,0,0-1.1-1,4,4,0,0,0-1.89-.41,3.69,3.69,0,0,0-2.17.64,3.8,3.8,0,0,0-1.29,1.66,5.84,5.84,0,0,0-.43,2.26,6.77,6.77,0,0,0,.4,2.36,4.07,4.07,0,0,0,1.26,1.8,3.49,3.49,0,0,0,2.21.72,4,4,0,0,0,2-.49,3.18,3.18,0,0,0,1.1-1h0Z" transform="translate(-275.49 -342.25)"/><path class="cls-4" d="M550.55,481.4h-1.87v1.87h1.87Zm-1.77,12.9h1.66v-9h-1.66Z" transform="translate(-275.49 -342.25)"/><path class="cls-4" d="M552.61,494a4,4,0,0,0,1.2.4,7.28,7.28,0,0,0,1.27.09,3.85,3.85,0,0,0,1.53-.3,2.68,2.68,0,0,0,1.16-.92,2.74,2.74,0,0,0,.46-1.59,2.22,2.22,0,0,0-.61-1.61,4.37,4.37,0,0,0-1.34-.87,9.64,9.64,0,0,1-1.34-.68,1.21,1.21,0,0,1-.61-1,.94.94,0,0,1,.48-.83,2.16,2.16,0,0,1,1.11-.27,4.3,4.3,0,0,1,.88.14,3.4,3.4,0,0,1,.87.32l.14-1.45a9.39,9.39,0,0,0-1-.25,5.69,5.69,0,0,0-1.08-.11,3.58,3.58,0,0,0-2.26.69,2.55,2.55,0,0,0-.92,2.09,2,2,0,0,0,.61,1.46,5,5,0,0,0,1.34.88,11,11,0,0,1,1.34.72,1.19,1.19,0,0,1,.61,1,1.12,1.12,0,0,1-.56,1,2.25,2.25,0,0,1-1.13.28,3.9,3.9,0,0,1-1-.16,4.16,4.16,0,0,1-1.1-.48Z" transform="translate(-275.49 -342.25)"/><path class="cls-4" d="M561.3,488.93a3.62,3.62,0,0,1,.32-1.17,2.42,2.42,0,0,1,.78-.95,2.25,2.25,0,0,1,1.32-.39,2.1,2.1,0,0,1,1.66.74,2.75,2.75,0,0,1,.59,1.78Zm5.75,3.34a4.22,4.22,0,0,1-1.13.58,5,5,0,0,1-1.65.33,3,3,0,0,1-3-3h6.44a8.21,8.21,0,0,0-.36-2.61,3.59,3.59,0,0,0-1.25-1.81,3.91,3.91,0,0,0-2.37-.68,4,4,0,0,0-3.07,1.28,4.78,4.78,0,0,0-1.16,3.28,5.17,5.17,0,0,0,1.13,3.54,4.52,4.52,0,0,0,3.53,1.34,6.72,6.72,0,0,0,1.74-.21,11.3,11.3,0,0,0,1.1-.38Z" transform="translate(-275.49 -342.25)"/><path class="cls-4" d="M569.85,494.3h1.66v-4.17a4.75,4.75,0,0,1,.66-2.68,2.37,2.37,0,0,1,2.08-1,1.68,1.68,0,0,1,1.5.85,5,5,0,0,1,.41,2.36v4.67h1.66v-5.36a4.37,4.37,0,0,0-.81-2.84,3.14,3.14,0,0,0-2.56-1,3.73,3.73,0,0,0-1.76.44,2.77,2.77,0,0,0-1.19,1.2h0v-1.43h-1.61Zm1.8-10.36a1.13,1.13,0,0,1,.23-.57.67.67,0,0,1,.59-.24,2.21,2.21,0,0,1,.83.2l.94.39a2.72,2.72,0,0,0,.95.21,1.36,1.36,0,0,0,.94-.34,2,2,0,0,0,.51-.78,3.9,3.9,0,0,0,.21-.85H576a1.13,1.13,0,0,1-.23.57.66.66,0,0,1-.59.24,2.22,2.22,0,0,1-.83-.2l-.94-.4a2.81,2.81,0,0,0-.95-.21,1.37,1.37,0,0,0-.94.35,2,2,0,0,0-.51.78,3.93,3.93,0,0,0-.21.85Z" transform="translate(-275.49 -342.25)"/><path class="cls-4" d="M581.71,489.79a4.07,4.07,0,0,1,.34-1.64,3.09,3.09,0,0,1,1-1.25,2.52,2.52,0,0,1,1.53-.49,2.49,2.49,0,0,1,1.52.49,3.09,3.09,0,0,1,1,1.25,4.09,4.09,0,0,1,.34,1.64,4.33,4.33,0,0,1-.3,1.59,3,3,0,0,1-.92,1.27,2.54,2.54,0,0,1-1.59.52,2.57,2.57,0,0,1-1.61-.52,3,3,0,0,1-.93-1.27A4.3,4.3,0,0,1,581.71,489.79Zm-1.77,0a5,5,0,0,0,.59,2.37,4.47,4.47,0,0,0,1.61,1.7,4.75,4.75,0,0,0,4.79,0,4.46,4.46,0,0,0,1.6-1.7,5,5,0,0,0,.59-2.37,4.82,4.82,0,0,0-1.26-3.39,4.82,4.82,0,0,0-6.65,0A4.81,4.81,0,0,0,579.95,489.79Z" transform="translate(-275.49 -342.25)"/><path class="cls-4" d="M597.21,489.76a4.75,4.75,0,0,1,.23-1.6,2.72,2.72,0,0,1,.8-1.24,2.18,2.18,0,0,1,1.45-.5,2.33,2.33,0,0,1,1.49.51,3,3,0,0,1,.89,1.26,4.53,4.53,0,0,1,.29,1.62,4.47,4.47,0,0,1-.27,1.54,3,3,0,0,1-.86,1.29,2.3,2.3,0,0,1-1.52.54,2.07,2.07,0,0,1-1.45-.57,3.22,3.22,0,0,1-.81-1.33A4.46,4.46,0,0,1,597.21,489.76Zm5.22,4.54H604V481h-1.66v5.48h0a2.83,2.83,0,0,0-1.1-1,4,4,0,0,0-1.89-.41,3.69,3.69,0,0,0-2.17.64,3.8,3.8,0,0,0-1.29,1.66,5.84,5.84,0,0,0-.43,2.26,6.81,6.81,0,0,0,.4,2.36,4.07,4.07,0,0,0,1.26,1.8,3.49,3.49,0,0,0,2.21.72,4,4,0,0,0,2-.49,3.18,3.18,0,0,0,1.1-1h0Z" transform="translate(-275.49 -342.25)"/><path class="cls-4" d="M607.91,488.93a3.63,3.63,0,0,1,.32-1.17,2.43,2.43,0,0,1,.78-.95,2.26,2.26,0,0,1,1.32-.39,2.1,2.1,0,0,1,1.66.74,2.74,2.74,0,0,1,.59,1.78Zm5.75,3.34a4.24,4.24,0,0,1-1.13.58,5,5,0,0,1-1.65.33,3,3,0,0,1-3-3h6.44a8.27,8.27,0,0,0-.36-2.61,3.59,3.59,0,0,0-1.25-1.81,3.91,3.91,0,0,0-2.37-.68,4,4,0,0,0-3.07,1.28,4.79,4.79,0,0,0-1.16,3.28,5.17,5.17,0,0,0,1.13,3.54,4.52,4.52,0,0,0,3.53,1.34,6.71,6.71,0,0,0,1.74-.21,11.36,11.36,0,0,0,1.1-.38Z" transform="translate(-275.49 -342.25)"/><path class="cls-4" d="M628.07,489.76a4.46,4.46,0,0,1-.23,1.51,3.22,3.22,0,0,1-.81,1.33,2.07,2.07,0,0,1-1.45.57,2.3,2.3,0,0,1-1.52-.54,3.06,3.06,0,0,1-.86-1.29,4.58,4.58,0,0,1,0-3.16,3,3,0,0,1,.88-1.26,2.33,2.33,0,0,1,1.49-.51,2.17,2.17,0,0,1,1.45.51,2.74,2.74,0,0,1,.8,1.25A4.68,4.68,0,0,1,628.07,489.76ZM621.26,498h1.66v-4.95h0a2.82,2.82,0,0,0,1.1,1,4,4,0,0,0,1.91.41,3.5,3.5,0,0,0,2.21-.71,4.05,4.05,0,0,0,1.26-1.8,6.81,6.81,0,0,0,.4-2.37,5.84,5.84,0,0,0-.43-2.26,3.81,3.81,0,0,0-1.29-1.66,3.69,3.69,0,0,0-2.17-.64,4,4,0,0,0-2,.49,3.18,3.18,0,0,0-1.1,1h0v-1.27h-1.59Z" transform="translate(-275.49 -342.25)"/><path class="cls-4" d="M632,494.3h1.66v-4.1a4.83,4.83,0,0,1,.67-2.69,2.09,2.09,0,0,1,1.79-1,2.83,2.83,0,0,1,.45,0,2.08,2.08,0,0,1,.47.13V485.2l-.5-.09a4.53,4.53,0,0,0-.6,0,2.45,2.45,0,0,0-1.37.45,2.94,2.94,0,0,0-1,1.15h0v-1.39H632Z" transform="translate(-275.49 -342.25)"/><path class="cls-4" d="M639.89,489.79a4.08,4.08,0,0,1,.34-1.64,3.09,3.09,0,0,1,1-1.25,2.52,2.52,0,0,1,1.53-.49,2.49,2.49,0,0,1,1.51.49,3.09,3.09,0,0,1,1,1.25,4.07,4.07,0,0,1,.34,1.64,4.33,4.33,0,0,1-.3,1.59,3,3,0,0,1-.92,1.27,2.54,2.54,0,0,1-1.59.52,2.57,2.57,0,0,1-1.61-.52,3,3,0,0,1-.93-1.27A4.31,4.31,0,0,1,639.89,489.79Zm-1.77,0a5,5,0,0,0,.59,2.37,4.46,4.46,0,0,0,1.61,1.7,4.75,4.75,0,0,0,4.79,0,4.47,4.47,0,0,0,1.6-1.7,5,5,0,0,0,.59-2.37A4.81,4.81,0,0,0,646,486.4a4.81,4.81,0,0,0-6.65,0A4.81,4.81,0,0,0,638.12,489.79Z" transform="translate(-275.49 -342.25)"/><path class="cls-4" d="M650.59,489.76a4.78,4.78,0,0,1,.23-1.6,2.73,2.73,0,0,1,.8-1.24,2.19,2.19,0,0,1,1.45-.5,2.33,2.33,0,0,1,1.49.51,3,3,0,0,1,.88,1.26,4.58,4.58,0,0,1,0,3.16,3.06,3.06,0,0,1-.86,1.29,2.3,2.3,0,0,1-1.52.54,2.07,2.07,0,0,1-1.45-.57,3.22,3.22,0,0,1-.81-1.33A4.49,4.49,0,0,1,650.59,489.76Zm5.22,4.54h1.59V481h-1.66v5.48h0a2.83,2.83,0,0,0-1.1-1,4,4,0,0,0-1.89-.41,3.69,3.69,0,0,0-2.17.64,3.81,3.81,0,0,0-1.29,1.66,5.86,5.86,0,0,0-.43,2.26,6.82,6.82,0,0,0,.4,2.36,4.07,4.07,0,0,0,1.26,1.8,3.49,3.49,0,0,0,2.21.72,4,4,0,0,0,2-.49,3.17,3.17,0,0,0,1.1-1h0Z" transform="translate(-275.49 -342.25)"/><path class="cls-4" d="M668.09,485.29h-1.66v4.17a4.75,4.75,0,0,1-.66,2.68,2.37,2.37,0,0,1-2.08,1,1.68,1.68,0,0,1-1.5-.85,5,5,0,0,1-.41-2.37v-4.67h-1.66v5.36a4.38,4.38,0,0,0,.81,2.84,3.15,3.15,0,0,0,2.56,1,3.71,3.71,0,0,0,1.76-.44,2.77,2.77,0,0,0,1.19-1.21h0v1.43h1.61Z" transform="translate(-275.49 -342.25)"/><path class="cls-4" d="M676.68,485.43a4.75,4.75,0,0,0-.93-.25,6.37,6.37,0,0,0-1.08-.11,4.51,4.51,0,0,0-3.33,1.33,4.81,4.81,0,0,0-1.26,3.39,5,5,0,0,0,.59,2.37,4.46,4.46,0,0,0,1.61,1.7,4.59,4.59,0,0,0,2.4.65,6.74,6.74,0,0,0,1-.07,3.82,3.82,0,0,0,1.08-.3l-.12-1.48a3.14,3.14,0,0,1-.87.38,3.51,3.51,0,0,1-.91.13,2.88,2.88,0,0,1-1.73-.52,2.92,2.92,0,0,1-1-1.27,4.18,4.18,0,0,1-.3-1.59,4,4,0,0,1,.34-1.64,3.05,3.05,0,0,1,1-1.25,2.64,2.64,0,0,1,1.58-.49,4.21,4.21,0,0,1,.86.1,5.3,5.3,0,0,1,.94.29Z" transform="translate(-275.49 -342.25)"/><path class="cls-4" d="M683.35,485.29H681v-2.62l-1.66.53v2.09h-2v1.34h2v5.27a2.52,2.52,0,0,0,.75,2,3,3,0,0,0,2,.63,3.75,3.75,0,0,0,.77-.08c.24-.05.46-.11.65-.16v-1.41a2,2,0,0,1-.47.22,2.22,2.22,0,0,1-.66.1,1.32,1.32,0,0,1-1-.41,1.71,1.71,0,0,1-.41-1.2v-4.93h2.39Z" transform="translate(-275.49 -342.25)"/><path class="cls-4" d="M686.5,489.79a4.09,4.09,0,0,1,.34-1.64,3.1,3.1,0,0,1,1-1.25,2.52,2.52,0,0,1,1.53-.49,2.49,2.49,0,0,1,1.52.49,3.1,3.1,0,0,1,1,1.25,4.09,4.09,0,0,1,.34,1.64,4.33,4.33,0,0,1-.3,1.59,3,3,0,0,1-.92,1.27,2.54,2.54,0,0,1-1.59.52,2.57,2.57,0,0,1-1.61-.52,3,3,0,0,1-.93-1.27A4.29,4.29,0,0,1,686.5,489.79Zm-1.77,0a5,5,0,0,0,.59,2.37,4.46,4.46,0,0,0,1.61,1.7,4.75,4.75,0,0,0,4.79,0,4.46,4.46,0,0,0,1.6-1.7,5,5,0,0,0,.59-2.37,4.82,4.82,0,0,0-1.26-3.39,4.82,4.82,0,0,0-6.65,0A4.8,4.8,0,0,0,684.73,489.79Z" transform="translate(-275.49 -342.25)"/><path class="cls-4" d="M695.27,494a4,4,0,0,0,1.2.4,7.27,7.27,0,0,0,1.27.09,3.85,3.85,0,0,0,1.53-.3,2.69,2.69,0,0,0,1.16-.92,2.75,2.75,0,0,0,.46-1.59,2.21,2.21,0,0,0-.61-1.61,4.38,4.38,0,0,0-1.34-.87,9.76,9.76,0,0,1-1.34-.68,1.21,1.21,0,0,1-.61-1,.94.94,0,0,1,.48-.83,2.16,2.16,0,0,1,1.12-.27,4.3,4.3,0,0,1,.88.14,3.38,3.38,0,0,1,.87.32l.14-1.45a9.42,9.42,0,0,0-1-.25,5.71,5.71,0,0,0-1.08-.11,3.58,3.58,0,0,0-2.26.69,2.55,2.55,0,0,0-.92,2.09,2,2,0,0,0,.61,1.46,5.07,5.07,0,0,0,1.34.88,11.16,11.16,0,0,1,1.34.72,1.19,1.19,0,0,1,.61,1,1.13,1.13,0,0,1-.56,1,2.26,2.26,0,0,1-1.13.28,3.88,3.88,0,0,1-1-.16,4.13,4.13,0,0,1-1.1-.48Z" transform="translate(-275.49 -342.25)"/><path class="cls-6" d="M637.06,414.93v52.4a.42.42,0,0,1-.38.38l-5.85.29q0,1.38,0,2.87t0,2.87q2.7,0,5.72,0t5.87,0h12.07v-5.74l-6.61-.19q0-9.45.12-20.31T648,426q.07-10.54.12-19a.47.47,0,0,0-.07-.3.25.25,0,0,0-.21-.08q-.61,0-4,.52l-7.36,1q-4,.56-6.47.83-.07,1.38-.13,2.84t-.06,2.91Z" transform="translate(-275.49 -342.25)"/><path class="cls-6" d="M669.47,463.31a5.93,5.93,0,0,1,2.53-4.9q2.57-2,8.21-2.1,1.46,0,2.5,0l1.43,0V464a1.72,1.72,0,0,1,0,.37.57.57,0,0,1-.17.3,19.71,19.71,0,0,1-4.5,2.3,13.56,13.56,0,0,1-4.42.86,6.46,6.46,0,0,1-3.9-1.23,4,4,0,0,1-1.67-3.18Zm15.06,7q1,1.44,1.82,2.55a12.7,12.7,0,0,0,1.53,1.76A62.43,62.43,0,0,0,696,474a34.33,34.33,0,0,0,4.95-.95q.06-1.38,0-2.86t0-2.79l-5.85.19a.43.43,0,0,1-.51-.22,2,2,0,0,1-.16-.94q0-2.12,0-5.74t.09-7.44q0-3.82,0-6.57-.17-7.23-4.12-11.12a13.29,13.29,0,0,0-9.58-3.93A24,24,0,0,0,670,434.33a40.63,40.63,0,0,0-8.7,6.16q.94,1.3,2,2.57t2,2.42a30.88,30.88,0,0,1,5.82-4.16,13.1,13.1,0,0,1,6-1.79,6,6,0,0,1,5.6,2.76q1.73,2.78,1.5,8.66h-5.85a26,26,0,0,0-11.28,2.31,16.49,16.49,0,0,0-6.48,5.31,10.52,10.52,0,0,0-2.08,5.89,8.48,8.48,0,0,0,1.89,5.19,13.17,13.17,0,0,0,4.45,3.61,11.71,11.71,0,0,0,5.15,1.35,20.52,20.52,0,0,0,5.86-.9A46.68,46.68,0,0,0,684,470.3Z" transform="translate(-275.49 -342.25)"/><path class="cls-6" d="M738.24,453.24a25.46,25.46,0,0,1-.93,7.13,14.31,14.31,0,0,1-2.52,5,9,9,0,0,1-3.19,2.37,9.65,9.65,0,0,1-3.91.79,12,12,0,0,1-5.43-1.35q-2.47-1.3-2.62-3.15,0-5,.06-10.49t.13-10.41a21.4,21.4,0,0,1,5.23-2.8,14.67,14.67,0,0,1,4.94-.94,6.81,6.81,0,0,1,3.58,1,8.13,8.13,0,0,1,2.65,2.7,13.19,13.19,0,0,1,1.51,4,29.1,29.1,0,0,1,.5,5.92Zm-18.6-17.06q.15-7.54.26-15.3t.12-14a.27.27,0,0,0-.11-.22.31.31,0,0,0-.18-.07q-.6,0-3.83.51l-7.11,1q-3.87.56-6.39.83-.07,1.31-.08,2.8t0,2.95L709,415v47.81q0,3.11-.21,6.27t-.36,5.13q1.74.36,3.33.63t2.9.42l2.68-3.44a20.18,20.18,0,0,0,4.87,2,21.9,21.9,0,0,0,5.67.78,26.74,26.74,0,0,0,6.89-.87,15.42,15.42,0,0,0,4.8-2.09,21.57,21.57,0,0,0,4.66-4.32,20.49,20.49,0,0,0,3-5,29.11,29.11,0,0,0,1.93-6.25,36,36,0,0,0,.56-6.69,19.38,19.38,0,0,0-2-8.47,18.26,18.26,0,0,0-5.37-6.59,12.77,12.77,0,0,0-7.65-2.66,17.93,17.93,0,0,0-3.44.26,22.26,22.26,0,0,0-4.18,1.3q-2.53,1-6.95,3.13Z" transform="translate(-275.49 -342.25)"/><path class="cls-7" d="M801.44,344H912v71.88a55.26,55.26,0,1,1-110.53,0Z" transform="translate(-275.49 -342.25)"/><path class="cls-8" d="M868.3,451c-29.91,0-52-24.37-52-54.44V389h52Z" transform="translate(-275.49 -342.25)"/><path class="cls-8" d="M822.94,482.36c0-2.74,2.53-1.87,2.53-2.52,0-.27-.22-.31-.65-.31-1.81,0-2.93.1-4.12.1-1,0-2,0-3-.1-.47,0-1.09-.12-1.09.27,0,.88,4.45.12,4.45,2.91v4.8c0,4.1-.94,7.93-8.14,7.93-6.48,0-7.92-3.08-7.92-6.79v-5.26c0-4,3-2.69,3-3.52,0-.15-.07-.34-.4-.34-.69,0-3.26.1-5.1.1s-4.52-.1-5-.1c-.29,0-.76.07-.76.39,0,.92,3.76.14,3.76,2.23v7.91c0,4.71,3.62,6.81,10.38,6.81,10,0,12-4.1,12-9Z" transform="translate(-275.49 -342.25)"/><path class="cls-8" d="M840.7,493.52c0,2.88-4.09,1.72-4.09,2.67,0,.53.62.51,1.27.51,1.45,0,2.64-.1,5.06-.1s3.62.1,5.07.1c1,0,1.77.07,1.77-.51s-4.63,0-4.63-3v-11c0-1.16.36-1.29,1.84-1.29h3.08c4.16-.1,3,2.6,4.45,2.6.94,0,.54-.95.47-1.24l-.4-2.23c0-.24,0-.58-.58-.58-3.37,0-5.79.1-11.07.1s-7.71-.1-11.07-.1c-.54,0-.54.34-.58.58l-.58,3.2c-.07.32-.29.85.47.85,1.63,0,.54-3.18,4.63-3.18h3c1.48,0,1.84.12,1.84,1.29Z" transform="translate(-275.49 -342.25)"/><path class="cls-8" d="M867.74,482.36c0-1.67.15-1.7,4.52-1.7,7,0,4.16,2.84,5.86,2.84.83,0,.65-.8.62-1.12l-.15-2.4c0-.22-.25-.46-.72-.46-3.18,0-5.68.1-8.25.1-5.54,0-8.14-.1-9.62-.1-.51,0-.8.19-.8.41,0,1,4.09.2,4.09,2.38v11.35c0,3-2.75,1.65-2.75,2.76,0,.14.22.27.69.27,2,0,3.51-.1,4.63-.1,1.81,0,4,.1,9.48.1,3,0,5.1-2,5.1-3.88,0-.46-.25-.53-.4-.53-1.37,0-.87,3.18-9.84,3.18-2.61,0-2.46-.87-2.46-2.37V490c0-1.41-.14-1.7,1.52-1.7h2.68c3.76,0,2.75,2.57,3.91,2.57.87,0,.65-.87.62-1.19l-.25-4.32c0-.65-.43-.61-.69-.61-.72,0-.83,2.23-3.94,2.23H869.3c-1.56,0-1.56-.17-1.56-1.21Z" transform="translate(-275.49 -342.25)"/><path class="cls-8" d="M890.21,485.78c0-.17,0-.61.25-.61s.29.27.4.41l7,10.45c.18.27.36.68.9.68s.72-.36.94-.68l6.84-9.58c.54-.8,1-1.29,1.12-1.29s.25.36.29,1.09l.54,7.35c.22,2.69-2.61,1.89-2.61,2.72,0,.44.9.36,1.66.36s1.7-.1,4.05-.1c1,0,2.06.1,3.11.1,1.27,0,1.74,0,1.74-.41,0-.9-3.33.17-3.51-3l-.62-10.74c-.14-2.79,3.4-1.84,3.4-2.72,0-.19-.07-.29-1-.29s-1.7.1-2.35.1-1.23-.1-2.1-.1c-.69,0-.8.31-.91.48L901,491.75c0,.07-.36.51-.58.51s-.33-.17-.47-.39l-8-11.64a1.26,1.26,0,0,0-1.27-.7c-1.19,0-2.53.1-3.36.1-1.16,0-1.7-.1-2.17-.1a.42.42,0,0,0-.43.34c0,1.07,3.87-.07,3.65,3.93l-.51,9.75c-.14,2.54-3.11,1.94-3.11,2.81,0,.14.15.34.69.34s1.81-.1,3.58-.1,2.43.1,3.73.1c1,0,.87-.29.87-.39,0-1-4,.41-3.76-3.73Z" transform="translate(-275.49 -342.25)"/><rect class="cls-9" x="592.83" y="16.1" width="30.56" height="30.71"/></svg>