<?xml version="1.0" encoding="utf-8"?>
<!-- Generator: Adobe Illustrator 24.0.2, SVG Export Plug-In . SVG Version: 6.00 Build 0)  -->
<svg version="1.1" id="Capa_1" xmlns="http://www.w3.org/2000/svg" xmlns:xlink="http://www.w3.org/1999/xlink" x="0px" y="0px"
	 width="512px" height="512px" viewBox="0 0 512 512" style="enable-background:new 0 0 512 512;" xml:space="preserve">
<style type="text/css">
	.st0{fill:#447878;}
</style>
<path class="st0" d="M448,0H64C28.7,0,0,28.7,0,64v384c0,35.3,28.7,64,64,64h190V335h-63v-80h63v-61.5c0-53,39.9-98.5,92.9-98.5H414
	v80h-34.7c-17.7,0-29.3,0.4-29.3,18.1V256l78-1l-32,80h-46v177h98c35.3,0,64-28.7,64-64V64C512,28.7,483.3,0,448,0z"/>
</svg>
