<?xml version="1.0" encoding="utf-8"?>
<!-- Generator: Adobe Illustrator 24.0.2, SVG Export Plug-In . SVG Version: 6.00 Build 0)  -->
<svg version="1.1" id="Capa_1" xmlns="http://www.w3.org/2000/svg" xmlns:xlink="http://www.w3.org/1999/xlink" x="0px" y="0px"
	 viewBox="0 0 109.92 30" style="enable-background:new 0 0 109.92 30;" xml:space="preserve">
<style type="text/css">
	.st0{fill:#09F0F0;}
	.st1{fill:#262626;}
</style>
<polygon class="st0" points="0,4.99 104.92,4.99 96.18,14.99 104.92,25 0,25 "/>
<g>
	<path class="st1" d="M8.12,12.13c0.5,0,0.89,0.05,1.18,0.16c0.29,0.11,0.49,0.29,0.61,0.55c0.12,0.26,0.19,0.63,0.19,1.11
		c0,0.48-0.06,0.85-0.18,1.11c-0.12,0.26-0.31,0.45-0.59,0.55c-0.27,0.1-0.63,0.16-1.08,0.16c-0.25,0-0.49-0.01-0.71-0.02
		c-0.23-0.02-0.44-0.04-0.63-0.07c-0.2-0.03-0.36-0.06-0.5-0.09c-0.14-0.03-0.23-0.06-0.29-0.08l0.02-0.55c0.31,0,0.64,0,0.97,0
		s0.66,0,0.99,0c0.24-0.01,0.43-0.04,0.57-0.09c0.14-0.06,0.24-0.16,0.3-0.3c0.06-0.15,0.09-0.35,0.09-0.62
		c0-0.27-0.03-0.48-0.09-0.62c-0.06-0.15-0.16-0.25-0.3-0.31c-0.14-0.06-0.33-0.09-0.57-0.09c-0.48,0-0.9,0-1.24,0.01
		c-0.35,0.01-0.58,0.01-0.71,0.02L6.03,12.2c0.22-0.02,0.43-0.04,0.62-0.05c0.2-0.01,0.41-0.02,0.63-0.02
		C7.52,12.13,7.79,12.13,8.12,12.13z M7.06,12.2v5.69H6.03V12.2H7.06z"/>
	<path class="st1" d="M11.73,13.84l0.13,0.79l0.09,0.12v3.14h-1v-4.05H11.73z M13.71,13.75l-0.1,0.92h-0.29
		c-0.21,0-0.43,0.04-0.65,0.11c-0.22,0.07-0.49,0.18-0.82,0.32l-0.07-0.59c0.29-0.24,0.58-0.43,0.87-0.56
		c0.3-0.13,0.58-0.2,0.86-0.2H13.71z"/>
	<path class="st1" d="M16.1,13.75c0.65,0,1.12,0.11,1.41,0.34c0.29,0.23,0.43,0.56,0.44,1.01c0.01,0.37-0.08,0.65-0.26,0.84
		c-0.18,0.19-0.47,0.28-0.89,0.28H14.5V15.6h2.04c0.19,0,0.31-0.05,0.36-0.15c0.05-0.1,0.08-0.22,0.08-0.36
		c-0.01-0.23-0.07-0.38-0.19-0.47c-0.12-0.09-0.33-0.13-0.63-0.13c-0.26,0-0.46,0.04-0.6,0.11c-0.14,0.07-0.24,0.2-0.3,0.39
		c-0.06,0.19-0.09,0.46-0.09,0.81c0,0.37,0.04,0.66,0.11,0.87c0.07,0.2,0.19,0.34,0.35,0.42c0.16,0.07,0.38,0.11,0.66,0.11
		c0.2,0,0.44-0.01,0.7-0.02c0.27-0.02,0.52-0.04,0.77-0.07l0.1,0.63c-0.15,0.06-0.32,0.11-0.51,0.15c-0.19,0.04-0.39,0.07-0.6,0.09
		c-0.21,0.02-0.4,0.03-0.58,0.03c-0.49,0-0.89-0.07-1.19-0.22c-0.3-0.15-0.52-0.38-0.65-0.69c-0.13-0.31-0.2-0.72-0.2-1.21
		c0-0.53,0.07-0.95,0.2-1.27c0.13-0.31,0.35-0.53,0.64-0.66C15.26,13.81,15.64,13.75,16.1,13.75z"/>
	<path class="st1" d="M20.66,13.75c0.14,0,0.29,0.01,0.45,0.02c0.17,0.01,0.33,0.03,0.5,0.07c0.17,0.03,0.32,0.08,0.46,0.14
		l-0.12,0.63c-0.2-0.01-0.41-0.02-0.61-0.02c-0.2-0.01-0.38-0.01-0.52-0.01c-0.28,0-0.5,0.04-0.66,0.11
		c-0.16,0.07-0.28,0.21-0.35,0.4c-0.07,0.19-0.11,0.45-0.11,0.8c0,0.34,0.04,0.61,0.11,0.8c0.07,0.19,0.19,0.32,0.35,0.4
		c0.16,0.08,0.38,0.12,0.66,0.12c0.08,0,0.19,0,0.33-0.01s0.28-0.01,0.44-0.02c0.16-0.01,0.31-0.03,0.46-0.04l0.1,0.64
		c-0.21,0.09-0.45,0.15-0.72,0.19c-0.26,0.04-0.52,0.06-0.78,0.06c-0.48,0-0.87-0.07-1.16-0.21c-0.29-0.14-0.5-0.36-0.63-0.67
		c-0.13-0.31-0.19-0.73-0.19-1.25c0-0.52,0.07-0.94,0.2-1.25c0.13-0.31,0.34-0.53,0.63-0.67C19.79,13.81,20.18,13.75,20.66,13.75z"
		/>
	<path class="st1" d="M23.72,12.09c0.2,0,0.3,0.1,0.3,0.3v0.46c0,0.2-0.1,0.3-0.3,0.3h-0.45c-0.2,0-0.3-0.1-0.3-0.3v-0.46
		c0-0.2,0.1-0.3,0.3-0.3H23.72z M23.99,13.84v4.05H23v-4.05H23.99z"/>
	<path class="st1" d="M26.98,13.75c0.49,0,0.89,0.07,1.18,0.21c0.29,0.14,0.51,0.36,0.63,0.68c0.13,0.31,0.19,0.73,0.19,1.24
		c0,0.52-0.06,0.93-0.19,1.24c-0.13,0.31-0.34,0.54-0.63,0.68C27.87,17.93,27.47,18,26.98,18c-0.48,0-0.87-0.07-1.17-0.21
		c-0.29-0.14-0.51-0.37-0.64-0.68c-0.13-0.31-0.2-0.72-0.2-1.24c0-0.52,0.07-0.93,0.2-1.24c0.13-0.31,0.34-0.54,0.64-0.68
		C26.11,13.81,26.49,13.75,26.98,13.75z M26.98,14.5c-0.24,0-0.43,0.04-0.57,0.12c-0.14,0.08-0.24,0.22-0.3,0.42
		c-0.06,0.2-0.09,0.48-0.09,0.83c0,0.36,0.03,0.63,0.09,0.83c0.06,0.2,0.16,0.33,0.3,0.41c0.14,0.08,0.33,0.12,0.57,0.12
		c0.25,0,0.44-0.04,0.59-0.12c0.14-0.08,0.24-0.21,0.3-0.41c0.06-0.2,0.09-0.48,0.09-0.83c0-0.36-0.03-0.63-0.09-0.83
		c-0.06-0.2-0.16-0.34-0.3-0.42C27.42,14.54,27.23,14.5,26.98,14.5z"/>
	<path class="st1" d="M33.1,13.75c0.27,0,0.54,0.04,0.81,0.11c0.26,0.07,0.5,0.2,0.72,0.37l-0.07,0.5
		c-0.21-0.06-0.41-0.11-0.58-0.16c-0.17-0.04-0.36-0.07-0.57-0.07c-0.2,0-0.36,0.03-0.47,0.1c-0.12,0.07-0.21,0.2-0.26,0.39
		c-0.06,0.19-0.09,0.47-0.09,0.84c0,0.35,0.03,0.62,0.08,0.81c0.06,0.19,0.14,0.32,0.26,0.4c0.12,0.07,0.27,0.11,0.45,0.11
		c0.15,0,0.28-0.02,0.4-0.05c0.12-0.04,0.23-0.09,0.35-0.17c0.12-0.08,0.26-0.17,0.42-0.28l0.08,0.56c-0.19,0.21-0.42,0.4-0.69,0.55
		c-0.27,0.15-0.59,0.23-0.94,0.23c-0.52,0-0.88-0.18-1.1-0.55c-0.22-0.37-0.33-0.9-0.33-1.59c0-0.53,0.06-0.95,0.17-1.26
		c0.11-0.31,0.28-0.52,0.51-0.65C32.48,13.81,32.76,13.75,33.1,13.75z M35.44,12.12v5.77h-0.78l-0.11-0.73l-0.11-0.08v-2.7
		l0.05-0.12c-0.02-0.16-0.04-0.32-0.04-0.48c-0.01-0.16-0.01-0.33-0.01-0.5v-1.16H35.44z"/>
	<path class="st1" d="M38.38,13.75c0.65,0,1.12,0.11,1.41,0.34c0.29,0.23,0.43,0.56,0.44,1.01c0.01,0.37-0.08,0.65-0.26,0.84
		c-0.18,0.19-0.47,0.28-0.89,0.28h-2.31V15.6h2.04c0.19,0,0.31-0.05,0.36-0.15c0.05-0.1,0.08-0.22,0.08-0.36
		c-0.01-0.23-0.07-0.38-0.19-0.47c-0.12-0.09-0.33-0.13-0.63-0.13c-0.26,0-0.46,0.04-0.6,0.11c-0.14,0.07-0.24,0.2-0.3,0.39
		c-0.06,0.19-0.09,0.46-0.09,0.81c0,0.37,0.04,0.66,0.11,0.87c0.07,0.2,0.19,0.34,0.35,0.42c0.16,0.07,0.38,0.11,0.66,0.11
		c0.2,0,0.44-0.01,0.7-0.02c0.27-0.02,0.52-0.04,0.77-0.07l0.1,0.63c-0.15,0.06-0.32,0.11-0.51,0.15c-0.19,0.04-0.39,0.07-0.6,0.09
		c-0.21,0.02-0.4,0.03-0.58,0.03c-0.49,0-0.89-0.07-1.19-0.22c-0.3-0.15-0.52-0.38-0.65-0.69c-0.13-0.31-0.2-0.72-0.2-1.21
		c0-0.53,0.07-0.95,0.2-1.27c0.13-0.31,0.35-0.53,0.64-0.66C37.53,13.81,37.91,13.75,38.38,13.75z"/>
	<path class="st1" d="M43.94,12.12l-0.01,4.55c0,0.15,0.04,0.27,0.13,0.35c0.09,0.08,0.21,0.12,0.38,0.12h0.35l0.12,0.7
		c-0.06,0.03-0.14,0.05-0.25,0.07c-0.11,0.02-0.22,0.04-0.33,0.05c-0.11,0.01-0.21,0.01-0.29,0.01c-0.34,0-0.6-0.09-0.8-0.27
		c-0.2-0.18-0.3-0.44-0.3-0.78v-4.8H43.94z"/>
	<path class="st1" d="M48.63,15.4l-0.01,0.62h-1.85c-0.17,0.01-0.28,0.05-0.35,0.13c-0.07,0.08-0.11,0.2-0.11,0.34v0.22
		c0,0.17,0.04,0.29,0.13,0.37c0.09,0.08,0.23,0.12,0.41,0.12c0.15,0,0.31-0.03,0.49-0.09c0.18-0.06,0.36-0.14,0.54-0.26
		c0.18-0.12,0.34-0.25,0.48-0.41v0.52c-0.06,0.08-0.13,0.18-0.24,0.29c-0.1,0.11-0.23,0.22-0.38,0.33c-0.15,0.11-0.32,0.2-0.52,0.27
		c-0.2,0.07-0.41,0.11-0.65,0.11c-0.24,0-0.46-0.04-0.65-0.13c-0.19-0.09-0.34-0.21-0.45-0.38c-0.11-0.17-0.17-0.38-0.17-0.62v-0.43
		c0-0.32,0.11-0.57,0.32-0.75c0.21-0.18,0.5-0.27,0.87-0.27H48.63z M47.56,13.75c0.32,0,0.6,0.04,0.82,0.13
		c0.23,0.09,0.39,0.23,0.51,0.43c0.11,0.2,0.17,0.48,0.17,0.84v2.75h-0.79l-0.14-0.87l-0.07-0.12v-1.76c0-0.21-0.05-0.37-0.15-0.47
		c-0.1-0.1-0.29-0.14-0.57-0.14c-0.21,0-0.47,0.01-0.79,0.02c-0.32,0.02-0.63,0.04-0.95,0.07l-0.09-0.68
		c0.19-0.04,0.41-0.07,0.65-0.1c0.24-0.03,0.49-0.05,0.73-0.07C47.14,13.75,47.36,13.75,47.56,13.75z"/>
	<path class="st1" d="M50.97,13.84l0.1,0.79l0.08,0.12v3.14h-1v-4.05H50.97z M52.81,13.75c0.75,0,1.13,0.37,1.13,1.11v3.03h-1v-2.73
		c0-0.22-0.04-0.37-0.12-0.45c-0.08-0.08-0.21-0.12-0.39-0.12c-0.2,0-0.41,0.05-0.63,0.14c-0.21,0.09-0.47,0.22-0.78,0.39L51,14.51
		c0.3-0.25,0.61-0.44,0.91-0.57C52.22,13.81,52.52,13.75,52.81,13.75z"/>
	<path class="st1" d="M57.23,14.57l1.14,0.01l-2.4,2.6l-1.14-0.01L57.23,14.57z M58.4,17.17v0.73h-3.57v-0.73H58.4z M58.37,13.84
		v0.73h-3.5v-0.73H58.37z"/>
	<path class="st1" d="M62.43,15.4l-0.01,0.62h-1.85c-0.17,0.01-0.28,0.05-0.35,0.13c-0.07,0.08-0.11,0.2-0.11,0.34v0.22
		c0,0.17,0.04,0.29,0.13,0.37c0.09,0.08,0.23,0.12,0.41,0.12c0.15,0,0.31-0.03,0.49-0.09c0.18-0.06,0.36-0.14,0.54-0.26
		c0.18-0.12,0.34-0.25,0.48-0.41v0.52c-0.06,0.08-0.13,0.18-0.24,0.29c-0.1,0.11-0.23,0.22-0.38,0.33c-0.15,0.11-0.32,0.2-0.52,0.27
		c-0.2,0.07-0.41,0.11-0.65,0.11c-0.24,0-0.46-0.04-0.65-0.13c-0.19-0.09-0.34-0.21-0.45-0.38c-0.11-0.17-0.17-0.38-0.17-0.62v-0.43
		c0-0.32,0.11-0.57,0.32-0.75c0.21-0.18,0.5-0.27,0.87-0.27H62.43z M61.35,13.75c0.32,0,0.6,0.04,0.82,0.13
		c0.23,0.09,0.39,0.23,0.51,0.43c0.11,0.2,0.17,0.48,0.17,0.84v2.75h-0.79l-0.14-0.87l-0.07-0.12v-1.76c0-0.21-0.05-0.37-0.15-0.47
		c-0.1-0.1-0.29-0.14-0.57-0.14c-0.21,0-0.47,0.01-0.79,0.02c-0.32,0.02-0.63,0.04-0.95,0.07l-0.09-0.68
		c0.19-0.04,0.41-0.07,0.65-0.1c0.24-0.03,0.49-0.05,0.73-0.07C60.93,13.75,61.16,13.75,61.35,13.75z"/>
	<path class="st1" d="M64.74,13.84l0.1,0.79l0.1,0.12v3.14h-1v-4.05H64.74z M66.41,13.75c0.35,0,0.62,0.09,0.81,0.28
		c0.19,0.19,0.28,0.46,0.29,0.83v3.03h-0.96v-2.73c0-0.21-0.04-0.36-0.13-0.45c-0.09-0.09-0.22-0.13-0.4-0.13
		c-0.11,0-0.22,0.02-0.33,0.05c-0.11,0.03-0.23,0.09-0.36,0.16c-0.13,0.08-0.3,0.18-0.49,0.31l-0.06-0.6
		c0.27-0.26,0.54-0.45,0.81-0.58C65.84,13.81,66.12,13.75,66.41,13.75z M68.99,13.75c0.36,0,0.63,0.09,0.82,0.28
		c0.19,0.19,0.28,0.47,0.28,0.83v3.03H69.1v-2.73c-0.01-0.2-0.05-0.35-0.12-0.44c-0.08-0.09-0.21-0.14-0.4-0.14
		c-0.12,0-0.23,0.02-0.33,0.05c-0.11,0.04-0.23,0.09-0.36,0.17s-0.29,0.18-0.48,0.31l-0.06-0.6c0.28-0.26,0.55-0.45,0.81-0.58
		C68.42,13.81,68.7,13.75,68.99,13.75z"/>
	<path class="st1" d="M71.94,12.09c0.2,0,0.3,0.1,0.3,0.3v0.46c0,0.2-0.1,0.3-0.3,0.3h-0.45c-0.2,0-0.3-0.1-0.3-0.3v-0.46
		c0-0.2,0.1-0.3,0.3-0.3H71.94z M72.21,13.84v4.05h-0.99v-4.05H72.21z"/>
	<path class="st1" d="M75.17,13.75c0.65,0,1.12,0.11,1.41,0.34c0.29,0.23,0.43,0.56,0.44,1.01c0.01,0.37-0.08,0.65-0.26,0.84
		c-0.18,0.19-0.47,0.28-0.89,0.28h-2.31V15.6h2.04c0.19,0,0.31-0.05,0.36-0.15c0.05-0.1,0.08-0.22,0.08-0.36
		c-0.01-0.23-0.07-0.38-0.19-0.47c-0.12-0.09-0.33-0.13-0.63-0.13c-0.26,0-0.46,0.04-0.6,0.11c-0.14,0.07-0.24,0.2-0.3,0.39
		c-0.06,0.19-0.09,0.46-0.09,0.81c0,0.37,0.04,0.66,0.11,0.87c0.07,0.2,0.19,0.34,0.35,0.42c0.17,0.07,0.38,0.11,0.66,0.11
		c0.2,0,0.44-0.01,0.7-0.02c0.27-0.02,0.52-0.04,0.77-0.07l0.1,0.63c-0.15,0.06-0.32,0.11-0.51,0.15c-0.19,0.04-0.39,0.07-0.6,0.09
		c-0.21,0.02-0.4,0.03-0.58,0.03c-0.49,0-0.89-0.07-1.19-0.22c-0.3-0.15-0.52-0.38-0.65-0.69c-0.13-0.31-0.2-0.72-0.2-1.21
		c0-0.53,0.07-0.95,0.2-1.27c0.13-0.31,0.35-0.53,0.64-0.66C74.32,13.81,74.7,13.75,75.17,13.75z"/>
	<path class="st1" d="M78.73,13.84l0.1,0.79l0.08,0.12v3.14h-1v-4.05H78.73z M80.58,13.75c0.75,0,1.13,0.37,1.13,1.11v3.03h-1v-2.73
		c0-0.22-0.04-0.37-0.12-0.45c-0.08-0.08-0.21-0.12-0.39-0.12c-0.2,0-0.41,0.05-0.63,0.14c-0.21,0.09-0.47,0.22-0.78,0.39l-0.04-0.6
		c0.3-0.25,0.61-0.44,0.91-0.57C79.98,13.81,80.28,13.75,80.58,13.75z"/>
	<path class="st1" d="M85.34,13.84v0.69h-2.92v-0.65l0.79-0.04H85.34z M84.14,12.69v3.98c0,0.17,0.04,0.28,0.11,0.36
		c0.07,0.07,0.2,0.11,0.38,0.11h0.56l0.11,0.7c-0.09,0.03-0.21,0.05-0.34,0.07c-0.13,0.02-0.26,0.04-0.39,0.05
		c-0.13,0.01-0.23,0.01-0.32,0.01c-0.35,0-0.63-0.09-0.82-0.28c-0.2-0.19-0.29-0.46-0.29-0.82v-4.18H84.14z"/>
	<path class="st1" d="M87.91,13.75c0.49,0,0.89,0.07,1.18,0.21c0.29,0.14,0.51,0.36,0.64,0.68c0.13,0.31,0.19,0.73,0.19,1.24
		c0,0.52-0.06,0.93-0.19,1.24c-0.13,0.31-0.34,0.54-0.64,0.68C88.8,17.93,88.4,18,87.91,18c-0.48,0-0.87-0.07-1.17-0.21
		c-0.29-0.14-0.51-0.37-0.64-0.68c-0.13-0.31-0.2-0.72-0.2-1.24c0-0.52,0.07-0.93,0.2-1.24s0.34-0.54,0.64-0.68
		C87.03,13.81,87.42,13.75,87.91,13.75z M87.91,14.5c-0.24,0-0.43,0.04-0.57,0.12c-0.14,0.08-0.24,0.22-0.3,0.42
		c-0.06,0.2-0.09,0.48-0.09,0.83c0,0.36,0.03,0.63,0.09,0.83c0.06,0.2,0.16,0.33,0.3,0.41c0.14,0.08,0.33,0.12,0.57,0.12
		c0.25,0,0.44-0.04,0.59-0.12c0.14-0.08,0.24-0.21,0.3-0.41c0.06-0.2,0.09-0.48,0.09-0.83c0-0.36-0.03-0.63-0.09-0.83
		c-0.06-0.2-0.16-0.34-0.3-0.42C88.35,14.54,88.15,14.5,87.91,14.5z"/>
</g>
</svg>
