<?xml version="1.0" encoding="utf-8"?>
<!-- Generator: Adobe Illustrator 24.0.2, SVG Export Plug-In . SVG Version: 6.00 Build 0)  -->
<svg version="1.1" id="Capa_1" xmlns="http://www.w3.org/2000/svg" xmlns:xlink="http://www.w3.org/1999/xlink" x="0px" y="0px"
	 width="1714.9px" height="606.8px" viewBox="0 0 1714.9 606.8" style="enable-background:new 0 0 1714.9 606.8;"
	 xml:space="preserve">
<style type="text/css">
	.st0{fill:#262626;}
	.st1{fill:#C0BFBF;}
	.st2{fill:#F300FF;}
	.st3{fill:#38FFFF;}
	.st4{fill:#FFFFFF;stroke:#141414;stroke-miterlimit:10;}
</style>
<g>
	<g>
		<g>
			<polygon class="st0" points="181.4,44.3 311.3,174.2 311.2,434.4 181.4,564.3 			"/>
			<g>
				<path class="st1" d="M181.5,44.6l129.6,129.6v260.1L181.5,564V44.6 M181.2,44v520.6l130.1-130.1V174.1L181.2,44L181.2,44z"/>
			</g>
		</g>
		<g>
			<polygon class="st2" points="246.3,333.2 181.2,268.1 181.2,340.4 246.3,405.5 			"/>
		</g>
	</g>
	<g>
		<g>
			<polygon class="st0" points="51.1,434.3 51.2,174.1 181.1,44.3 181,564.3 			"/>
			<g>
				<path class="st1" d="M181,44.6L180.9,564L51.3,434.3l0-260.1L181,44.6 M181.2,44L51.1,174.1l0,260.3l130.1,130.2L181.2,44
					L181.2,44z"/>
			</g>
		</g>
		<g>
			<polygon class="st3" points="181.2,268.1 116.1,203.1 116.1,275.4 181.2,340.4 			"/>
		</g>
	</g>
	<g>
		<polygon class="st0" points="347.8,435.7 347.8,174.9 412.9,240 412.8,370.6 543.6,370.6 608.6,435.7 		"/>
		<g>
			<path class="st1" d="M347.9,175.2l64.8,64.8v130.5v0.3h0.3h130.5l64.8,64.8H347.9V175.2 M347.7,174.6v261.2h261.2l-65.3-65.3H413
				V239.9L347.7,174.6L347.7,174.6z"/>
		</g>
	</g>
	<g>
		<polygon class="st0" points="543.6,337.8 543.7,272.5 608.7,207.5 608.7,402.8 		"/>
		<g>
			<path class="st1" d="M608.6,207.9v194.7l-64.8-64.8v-65.1L608.6,207.9 M608.9,207.2l-65.3,65.3v65.3l65.3,65.3V207.2L608.9,207.2
				z"/>
		</g>
	</g>
	<g>
		<polygon class="st0" points="641.8,435.7 706.9,370.6 837.4,370.6 902.4,435.7 		"/>
		<g>
			<path class="st1" d="M837.3,370.7l64.8,64.8h-260l64.8-64.8H837.3 M837.4,370.5H706.8l-65.3,65.3h261.2L837.4,370.5L837.4,370.5z
				"/>
		</g>
	</g>
	<g>
		<polygon class="st0" points="721.6,337.7 786.7,272.6 822.6,272.7 757.5,337.7 		"/>
		<g>
			<path class="st1" d="M822.3,272.8l-64.8,64.8h-35.6l64.8-64.8H822.3 M822.9,272.5h-36.3l-65.3,65.3h36.3L822.9,272.5L822.9,272.5
				z"/>
		</g>
	</g>
	<path class="st4" d="M345.9,246.1"/>
	<g>
		<polygon class="st3" points="543.6,272.5 608.9,207.2 608.9,174.6 543.6,239.9 		"/>
	</g>
	<g>
		<polygon class="st0" points="935.6,435.7 1000.7,370.6 1131.4,370.6 1131.4,239.9 1196.4,174.9 1196.4,435.7 		"/>
		<g>
			<path class="st1" d="M1196.3,175.2v260.3H935.9l64.8-64.8h130.5h0.3v-0.3V240L1196.3,175.2 M1196.5,174.6l-65.3,65.3v130.6
				h-130.6l-65.3,65.3h261.2V174.6L1196.5,174.6z"/>
		</g>
	</g>
	<g>
		<polygon class="st0" points="935.5,207.5 1000.6,272.6 1000.5,337.8 935.5,402.8 		"/>
		<g>
			<path class="st1" d="M935.6,207.9l64.8,64.8v65.1l-64.8,64.8V207.9 M935.3,207.2v195.9l65.3-65.3v-65.3L935.3,207.2L935.3,207.2z
				"/>
		</g>
	</g>
	<path class="st4" d="M1196.5,246.1"/>
	<g>
		<polygon class="st2" points="1000.6,272.5 935.3,207.2 935.3,174.6 1000.6,239.9 		"/>
	</g>
	<g>
		<polygon class="st2" points="786.6,403.1 754,435.8 790.2,435.8 822.9,403.1 		"/>
	</g>
	<g>
		<polygon class="st0" points="706.8,239.8 641.8,174.7 902.4,174.7 837.3,239.8 		"/>
		<g>
			<path class="st1" d="M902.1,174.8l-64.8,64.8H706.9l-64.8-64.8H902.1 M902.7,174.6H641.5l65.3,65.3h130.6L902.7,174.6
				L902.7,174.6z"/>
		</g>
	</g>
	<g>
		<polygon class="st3" points="754,174.6 721.3,207.2 757.6,207.2 790.2,174.6 		"/>
	</g>
	<polygon class="st3" points="601.7,336 608.9,343.2 608.9,266.7 601.7,273.9 	"/>
	<polygon class="st2" points="941.5,274 935.3,267.9 935.3,342.5 941.5,336.3 	"/>
	<polygon class="st3" points="526.3,370.5 502.7,394.1 389.4,394.1 389.4,286.8 413,263.2 413,258.1 385.8,285.3 385.8,397.7 
		504.2,397.7 531.4,370.5 	"/>
	<polygon class="st2" points="1131.2,252 1131.2,257.1 1153,278.9 1153,392.3 1045.7,392.3 1024,370.5 1018.9,370.5 1044.2,395.9 
		1156.6,395.9 1156.6,277.4 	"/>
	<g>
		<polygon class="st1" points="1226.5,436.6 1226.5,175.4 1291.8,240.7 1291.8,371.3 		"/>
	</g>
	<g>
		<polygon class="st1" points="1259.2,175.4 1324.5,240.7 1389.8,240.7 1422.4,273.4 1422.4,338.7 1389.8,371.3 1324.5,371.3 
			1259.2,436.6 1422.4,436.6 1487.7,371.3 1487.7,240.7 1422.4,175.4 		"/>
	</g>
	<g>
		<polygon class="st1" points="1520.4,240.7 1520.4,306 1618.3,306 1683.6,240.7 		"/>
	</g>
	<g>
		<polygon class="st1" points="1618.3,338.7 1618.3,436.6 1553,501.9 1422.4,501.9 1487.7,567.2 1585.7,567.2 1683.6,469.3 
			1683.6,273.4 		"/>
	</g>
</g>
</svg>
