<?xml version="1.0" encoding="utf-8"?>
<!-- Generator: Adobe Illustrator 24.0.2, SVG Export Plug-In . SVG Version: 6.00 Build 0)  -->
<svg version="1.1" id="Capa_1" xmlns="http://www.w3.org/2000/svg" xmlns:xlink="http://www.w3.org/1999/xlink" x="0px" y="0px"
	 width="512px" height="512px" viewBox="0 0 512 512" style="enable-background:new 0 0 512 512;" xml:space="preserve">
<style type="text/css">
	.st0{fill:#447878;}
</style>
<path class="st0" d="M499.9,133.9c-5.9-21.8-23-39-44.8-44.8c-39.8-10.9-199-10.9-199-10.9s-159.2,0-199,10.5
	c-21.4,5.9-39,23.5-44.8,45.3C1.7,173.7,1.7,256.2,1.7,256.2s0,83,10.5,122.3c5.9,21.8,23,39,44.8,44.8c40.2,10.9,199,10.9,199,10.9
	s159.2,0,199-10.5c21.8-5.9,39-23,44.8-44.8c10.5-39.8,10.5-122.3,10.5-122.3S510.8,173.7,499.9,133.9z M201.7,336.8V175.7
	l139.8,80.5L201.7,336.8z"/>
</svg>
