<?xml version="1.0" encoding="utf-8"?>
<!-- Generator: Adobe Illustrator 24.0.2, SVG Export Plug-In . SVG Version: 6.00 Build 0)  -->
<svg version="1.1" id="Capa_1" xmlns="http://www.w3.org/2000/svg" xmlns:xlink="http://www.w3.org/1999/xlink" x="0px" y="0px"
	 viewBox="0 0 35 35" style="enable-background:new 0 0 35 35;" xml:space="preserve">
<style type="text/css">
	.st0{fill:none;stroke:#EB5757;stroke-width:2;stroke-miterlimit:10;}
</style>
<path class="st0" d="M1.8,1.5c2.5,1.9,5,4.5,5.1,7.6c0.1,2.4-1.3,3.8-0.6,4.5c0.9,0.9,3.7-1.3,12.1-5.6c3.2-1.6,4.5-2.4,4.3-3.8
	c-0.1-0.9,0.5-2.5,2.2-2.7c2.7-0.4,3.7,0.6,5.9,3.9c3.1,4.9,1.4,10.8,1.1,11.6c-1.6,4.2-5.6,8.1-7.8,7.4c-0.8-0.3-0.8-1.1-1.6-1.9
	c-3.5-4-14.8,6.4-16.4,0.7c-0.9-3.1,3.1-3.2,8.2-8.7C17.5,11,19.4,9,18.8,8C18,6.7,13,7.4,9.4,10.1c-4,3-5.8,8.4-5.1,13.2
	c0.1,1,1,7,5.6,9.4c4.9,2.5,10.5-0.7,16.6-4.3c3.9-2.2,6.2-3.6,6.7-6.2c0.8-4-2.9-8.9-6.9-9.4c-5.6-0.7-10.4,7.5-11,8.6
	c-2.7,4.7-2,7.7-4.7,9.1C7.7,32.1,3,30.7,2,28.2c-1.2-2.8,3.3-4.9,6.5-12.9c2.4-6,1.2-8.3,3.5-9.9c5.2-3.8,17.6,3.2,17.1,5.7
	c-0.3,1.7-5.9,0.3-14.3,3.8c-1.2,0.5-11.6,4.9-11.1,9.2c0.5,4,10.1,5.7,11.3,5.9c5.3,0.9,15.6,1,17.7-4.2c1.3-3.2-0.9-7-1.5-8
	c-3.8-6.5-11.1-6.2-11.1-9.5c-0.1-2.2,3.2-5,6.7-4.9c3.1,0.1,6,2.4,6.2,4.7c0.3,3.5-6,6.4-8,7.3c-1.5,0.7-2.6,1-3,1.1
	c-8.1,2.3-21.4,11.9-19.9,1.9c0.4-2.8,7.6-1.6,13.3,0.8c5.1,2.2,5.5,6.8,12.4,11.4c2.6,1.8,5.1,2.7,6.8,3.3"/>
</svg>
