<?xml version="1.0" encoding="utf-8"?>
<!-- Generator: Adobe Illustrator 24.0.2, SVG Export Plug-In . SVG Version: 6.00 Build 0)  -->
<svg version="1.1" id="Capa_1" xmlns="http://www.w3.org/2000/svg" xmlns:xlink="http://www.w3.org/1999/xlink" x="0px" y="0px"
	 viewBox="0 0 35 35" style="enable-background:new 0 0 35 35;" xml:space="preserve">
<style type="text/css">
	.st0{fill:#EB5757;}
</style>
<path class="st0" d="M7.8,8.5H0.7C0.3,8.5,0,8.2,0,7.8V0.7C0,0.3,0.3,0,0.7,0h7.1c0.4,0,0.7,0.3,0.7,0.7v7.1
	C8.5,8.2,8.2,8.5,7.8,8.5z"/>
<path class="st0" d="M34.3,8.5h-7.1c-0.4,0-0.7-0.3-0.7-0.7V0.7c0-0.4,0.3-0.7,0.7-0.7h7.1C34.7,0,35,0.3,35,0.7v7.1
	C35,8.2,34.7,8.5,34.3,8.5z"/>
<path class="st0" d="M21.1,8.5h-7.1c-0.4,0-0.7-0.3-0.7-0.7V0.7c0-0.4,0.3-0.7,0.7-0.7h7.1c0.4,0,0.7,0.3,0.7,0.7v7.1
	C21.7,8.2,21.4,8.5,21.1,8.5z"/>
<path class="st0" d="M27.9,30.8L27.9,30.8c-2.3,0-4.2-1.9-4.2-4.2v0c0-2.3,1.9-4.2,4.2-4.2h0c2.3,0,4.2,1.9,4.2,4.2v0
	C32.1,28.9,30.2,30.8,27.9,30.8z"/>
<path class="st0" d="M21.1,35h-7.1c-0.4,0-0.7-0.3-0.7-0.7v-7.1c0-0.4,0.3-0.7,0.7-0.7h7.1c0.4,0,0.7,0.3,0.7,0.7v7.1
	C21.7,34.7,21.4,35,21.1,35z"/>
<path class="st0" d="M7.8,21.7H0.7c-0.4,0-0.7-0.3-0.7-0.7v-7.1c0-0.4,0.3-0.7,0.7-0.7h7.1c0.4,0,0.7,0.3,0.7,0.7v7.1
	C8.5,21.4,8.2,21.7,7.8,21.7z"/>
<path class="st0" d="M21.1,21.7h-7.1c-0.4,0-0.7-0.3-0.7-0.7v-7.1c0-0.4,0.3-0.7,0.7-0.7h7.1c0.4,0,0.7,0.3,0.7,0.7v7.1
	C21.7,21.4,21.4,21.7,21.1,21.7z"/>
<path class="st0" d="M27.9,10l4.9,5.7c0.3,0.4,0.1,1-0.4,1.1l-7.4,1.4c-0.5,0.1-0.9-0.4-0.8-0.9l2.4-7.1C26.9,9.8,27.6,9.7,27.9,10z
	"/>
<path class="st0" d="M9.6,23.8l2.6,5.1c0.1,0.3,0.1,0.6-0.1,0.8l-4.1,4c-0.2,0.2-0.5,0.3-0.8,0.1l-5.1-2.6c-0.3-0.1-0.4-0.4-0.4-0.7
	l0.9-5.6c0-0.3,0.3-0.5,0.6-0.6l5.7-0.9C9.2,23.3,9.5,23.5,9.6,23.8z"/>
</svg>
