<?xml version="1.0" encoding="utf-8"?>
<!-- Generator: Adobe Illustrator 24.0.2, SVG Export Plug-In . SVG Version: 6.00 Build 0)  -->
<svg version="1.1" id="Capa_1" xmlns="http://www.w3.org/2000/svg" xmlns:xlink="http://www.w3.org/1999/xlink" x="0px" y="0px"
	 viewBox="0 0 35 35" style="enable-background:new 0 0 35 35;" xml:space="preserve">
<style type="text/css">
	.st0{fill:#EB5757;}
</style>
<path class="st0" d="M23.9,27.6l7,7c0.2,0.2,0.5,0.4,0.9,0.4c0,0,0,0,0,0c0.3,0,0.6-0.1,0.9-0.4l2-2c0.5-0.5,0.5-1.3,0-1.7l-7-7
	c-0.2-0.2-0.5-0.4-0.9-0.4h-2.1l0.6-0.8c2-2.5,3-5.5,3-8.7C28.3,6.3,21.9,0,14.1,0S0,6.3,0,14.1s6.3,14.1,14.1,14.1
	c3.2,0,6.2-1,8.7-3l0.8-0.6v2.1C23.6,27.1,23.7,27.4,23.9,27.6z M14.1,23.6c-5.2,0-9.4-4.2-9.4-9.4s4.2-9.4,9.4-9.4
	c5.2,0,9.4,4.2,9.4,9.4S19.3,23.6,14.1,23.6z"/>
</svg>
