<?xml version="1.0" encoding="utf-8"?>
<!-- Generator: Adobe Illustrator 24.0.2, SVG Export Plug-In . SVG Version: 6.00 Build 0)  -->
<svg version="1.1" id="Capa_1" xmlns="http://www.w3.org/2000/svg" xmlns:xlink="http://www.w3.org/1999/xlink" x="0px" y="0px"
	 viewBox="0 0 35 35" style="enable-background:new 0 0 35 35;" xml:space="preserve">
<style type="text/css">
	.st0{fill:#2FC4AB;}
</style>
<g>
	<path class="st0" d="M15.4,15.8c0.1,0.1,0.2,0.2,0.3,0.3c0.1,0.1,0.3,0.1,0.5,0.1c0.1,0,0.2,0,0.3-0.1l-1-1.5
		c-0.1,0.2-0.2,0.3-0.2,0.5C15.2,15.3,15.3,15.5,15.4,15.8z"/>
	<path class="st0" d="M19.1,17.1l1.1,1.6c0.1-0.1,0.1-0.3,0.2-0.4c0.1-0.3,0-0.5-0.2-0.7c-0.1-0.2-0.3-0.4-0.6-0.4
		C19.4,17,19.2,17,19.1,17.1z"/>
	<path class="st0" d="M13.6,0l-0.1,0.9L12,1.1l-0.7,1.3l-0.9-0.1L9.8,3.6L8.3,3.8L7.7,5.1L6.8,5L6.1,6.2L4.7,6.5L4,7.8L2.6,8
		L1.9,9.3L0,9.9C12.1,17.8,10.8,29.2,21.5,35l0.1-0.9l1.4-0.2l0.1-0.9l1.4-0.2l0.1-0.9l1.4-0.2l0.1-0.9l1.3-0.2l0.2-1l1.4-0.2
		l0.1-0.9l1.4-0.2l0.1-0.9l1.4-0.2l0.1-0.9l1.4-0.2l-0.4-0.5l1.4-0.2C23.5,15.9,26.4,6.6,13.6,0z M15.1,20c0,0.3-0.2,0.5-0.4,0.7
		l-2.1,1.6c-0.2,0.2-0.5,0.2-0.7,0.2c-0.3,0-0.5-0.2-0.6-0.4c-0.2-0.2-0.2-0.5-0.2-0.8c0-0.3,0.2-0.5,0.4-0.7l2.1-1.6
		c0.2-0.2,0.5-0.2,0.7-0.2c0.3,0,0.5,0.2,0.6,0.4C15.1,19.4,15.2,19.7,15.1,20z M22.3,17.8c0,0.5-0.1,1-0.3,1.5
		c-0.2,0.4-0.4,0.7-0.6,1l0.2,0.3c0.1,0.2,0.2,0.4,0.1,0.6c0,0.1-0.1,0.3-0.3,0.5c-0.2,0.1-0.3,0.2-0.6,0.1c-0.2,0-0.4-0.1-0.5-0.3
		l-0.2-0.3c-0.3,0.2-0.6,0.3-0.9,0.4c-0.4,0.1-0.9,0.2-1.3,0.2c-0.4,0-0.8-0.2-1.2-0.4c-0.3-0.2-0.4-0.5-0.4-0.7
		c0-0.2,0-0.5,0.3-0.8c0.1-0.2,0.4-0.3,0.6-0.3c0.2,0,0.4,0,0.6,0.1c0.2,0.1,0.4,0.1,0.7,0.1c0.2,0,0.4-0.1,0.6-0.2l-1.4-2
		c-0.7,0.3-1.4,0.4-2,0.4c-0.7-0.1-1.4-0.5-1.8-1.1c-0.3-0.4-0.5-0.9-0.5-1.4c0-0.5,0.1-1,0.3-1.5c0.2-0.4,0.4-0.7,0.7-1l-0.1-0.2
		c-0.1-0.2-0.2-0.4-0.1-0.6c0-0.2,0.1-0.4,0.3-0.5c0.2-0.2,0.4-0.2,0.6-0.1c0.2,0,0.3,0.1,0.5,0.3l0.1,0.2c0.5-0.3,0.9-0.4,1.4-0.4
		c0.5,0,1,0.1,1.5,0.3c0.3,0.1,0.4,0.3,0.6,0.5c0.1,0.2,0.1,0.5,0,0.8c-0.1,0.3-0.3,0.5-0.5,0.6c-0.3,0.1-0.5,0.1-0.7,0
		c-0.3-0.1-0.5-0.2-0.7-0.2c-0.1,0-0.2,0-0.3,0.1l1.2,1.7c0.7-0.3,1.3-0.4,1.9-0.4c0.7,0.1,1.4,0.5,1.8,1.2
		C22.1,16.8,22.2,17.3,22.3,17.8z M24.7,12.6c0,0.3-0.2,0.5-0.4,0.7l-2.1,1.6c-0.2,0.2-0.5,0.2-0.7,0.2c-0.3,0-0.5-0.2-0.6-0.4
		c-0.2-0.2-0.2-0.5-0.2-0.8c0-0.3,0.2-0.5,0.4-0.7l2.1-1.6c0.2-0.2,0.5-0.2,0.7-0.2c0.3,0,0.5,0.2,0.6,0.4
		C24.6,12.1,24.7,12.4,24.7,12.6z"/>
</g>
</svg>
