<?xml version="1.0" encoding="utf-8"?>
<!-- Generator: Adobe Illustrator 24.0.2, SVG Export Plug-In . SVG Version: 6.00 Build 0)  -->
<svg version="1.1" id="Capa_1" xmlns="http://www.w3.org/2000/svg" xmlns:xlink="http://www.w3.org/1999/xlink" x="0px" y="0px"
	 viewBox="0 0 35 35" style="enable-background:new 0 0 35 35;" xml:space="preserve">
<style type="text/css">
	.st0{fill:#EB5757;}
</style>
<path class="st0" d="M17.5,0C7.85,0,0,7.85,0,17.5S7.85,35,17.5,35H35V17.5C35,7.85,27.15,0,17.5,0z M19.03,25.83
	c-0.28,0.28-0.62,0.42-1.03,0.42c-0.39,0-0.73-0.14-1.03-0.42c-0.28-0.29-0.42-0.64-0.42-1.03c0-0.41,0.14-0.75,0.42-1.03
	c0.29-0.29,0.64-0.44,1.03-0.44c0.41,0,0.75,0.15,1.03,0.44c0.29,0.28,0.44,0.62,0.44,1.03C19.47,25.19,19.32,25.53,19.03,25.83z
	 M22.55,16.12c-0.25,0.57-0.6,1.09-1.03,1.55c-0.43,0.45-0.93,0.9-1.49,1.34c-0.36,0.29-0.62,0.68-0.76,1.16
	c-0.14,0.46-0.21,0.84-0.21,1.13c0,0.31-0.1,0.57-0.29,0.78c-0.19,0.19-0.44,0.28-0.77,0.28c-0.31,0-0.57-0.1-0.78-0.29
	c-0.2-0.21-0.29-0.47-0.29-0.78c0-0.55,0.14-1.14,0.42-1.79c0.28-0.66,0.71-1.24,1.3-1.74c0.39-0.34,0.75-0.67,1.07-0.99
	c0.34-0.34,0.6-0.71,0.8-1.13c0.21-0.43,0.32-0.96,0.32-1.57c0-0.45-0.11-0.87-0.32-1.26c-0.21-0.39-0.51-0.71-0.9-0.94
	c-0.38-0.25-0.85-0.38-1.41-0.38c-1.02,0-1.79,0.28-2.29,0.84c-0.49,0.55-0.74,1.27-0.74,2.16c0,0.31-0.1,0.57-0.29,0.78
	c-0.2,0.2-0.45,0.29-0.78,0.29c-0.31,0-0.57-0.1-0.78-0.29c-0.2-0.21-0.29-0.47-0.29-0.78c0-0.98,0.21-1.84,0.63-2.58
	c0.43-0.74,1.04-1.32,1.81-1.74c0.78-0.43,1.69-0.65,2.73-0.65c0.91,0,1.71,0.2,2.41,0.59c0.71,0.38,1.27,0.91,1.68,1.6
	c0.42,0.67,0.63,1.46,0.63,2.37C22.93,14.86,22.8,15.54,22.55,16.12z"/>
</svg>
