<?xml version="1.0" encoding="utf-8"?>
<!-- Generator: Adobe Illustrator 24.0.2, SVG Export Plug-In . SVG Version: 6.00 Build 0)  -->
<svg version="1.1" id="Capa_1" xmlns="http://www.w3.org/2000/svg" xmlns:xlink="http://www.w3.org/1999/xlink" x="0px" y="0px"
	 viewBox="0 0 35 35" style="enable-background:new 0 0 35 35;" xml:space="preserve">
<style type="text/css">
	.st0{fill:#EB5757;}
</style>
<g>
	<polygon class="st0" points="27.96,35 31.45,31.5 27.96,31.5 	"/>
	<path class="st0" d="M5.21,0.01V35h21.87v-4.37h4.37V0.01H5.21z M24.74,22.74c0.17,0.22,0.24,0.48,0.23,0.76
		c-0.01,0.28-0.11,0.52-0.29,0.71c-0.17,0.2-0.41,0.29-0.71,0.29c-0.35,0-0.63-0.13-0.84-0.4l-4.56-6.32l-4.83,6.4
		c-0.21,0.21-0.46,0.31-0.76,0.31c-0.32,0-0.57-0.1-0.73-0.29c-0.17-0.21-0.25-0.45-0.25-0.71c0-0.28,0.08-0.53,0.25-0.76l4.89-6.51
		l-4.62-6.4c-0.17-0.22-0.24-0.47-0.21-0.73s0.13-0.5,0.29-0.69c0.18-0.2,0.42-0.29,0.71-0.29c0.36,0,0.62,0.1,0.78,0.31l4.51,6.26
		l4.7-6.26c0.2-0.21,0.45-0.31,0.78-0.31c0.29,0,0.52,0.09,0.69,0.27c0.17,0.18,0.26,0.41,0.27,0.67c0.01,0.27-0.06,0.52-0.23,0.78
		l-4.79,6.38L24.74,22.74z"/>
</g>
</svg>
