<?xml version="1.0" encoding="utf-8"?>
<!-- Generator: Adobe Illustrator 24.0.2, SVG Export Plug-In . SVG Version: 6.00 Build 0)  -->
<svg version="1.1" id="Capa_1" xmlns="http://www.w3.org/2000/svg" xmlns:xlink="http://www.w3.org/1999/xlink" x="0px" y="0px"
	 viewBox="0 0 35 35" style="enable-background:new 0 0 35 35;" xml:space="preserve">
<style type="text/css">
	.st0{fill:#2FC4AB;}
</style>
<path class="st0" d="M27.1,7.4c-2.4-0.6-5.9-1.8-9.5-4.4c-3.5,2.6-7.1,3.8-9.5,4.4C6.8,7.7,5.7,7.9,5,8C4.7,8,4.4,8,4.2,8
	c0,0.1,0,0.1,0,0.2c0,0.4,0.1,1.1,0.2,1.9c0.2,1.5,0.6,3.8,1.5,6.4c1.5,4.5,4.8,10.9,11.8,15.5c6.9-4.6,10.2-10.9,11.8-15.5
	c0.9-2.6,1.3-4.9,1.5-6.4c0.1-0.8,0.2-1.5,0.2-1.9c0-0.1,0-0.1,0-0.2c-0.2,0-0.5,0-0.8-0.1C29.7,7.9,28.5,7.7,27.1,7.4z"/>
<path class="st0" d="M17.7,0C9.7,6,1.4,6,1.4,6s0,18.6,16.3,29C34,24.6,34,6,34,6S25.7,6,17.7,0z M32.5,9.6c-0.2,1.6-0.7,4.1-1.6,7
	c-1.7,5-5.4,12-13,17l-0.1,0.1l-0.1-0.1c-7.7-5-11.3-12-13-17c-1-2.9-1.4-5.4-1.7-7C2.8,8.7,2.7,8,2.7,7.5c0-0.2,0-0.3,0-0.5l0-0.3
	h0.3c0.3,0,0.6,0,1-0.1c0.8-0.1,2-0.3,3.5-0.6c2.6-0.6,6.4-2,10.2-4.7l0.1-0.1l0.1,0.1c3.8,2.8,7.6,4.1,10.2,4.7
	c1.5,0.4,2.7,0.5,3.5,0.6c0.4,0,0.8,0.1,1,0.1l0.3,0l0,0.3c0,0.1,0,0.3,0,0.5C32.7,8,32.6,8.7,32.5,9.6z"/>
</svg>
