<?xml version="1.0" encoding="utf-8"?>
<!-- Generator: Adobe Illustrator 24.0.2, SVG Export Plug-In . SVG Version: 6.00 Build 0)  -->
<svg version="1.1" id="Capa_1" xmlns="http://www.w3.org/2000/svg" xmlns:xlink="http://www.w3.org/1999/xlink" x="0px" y="0px"
	 viewBox="0 0 35 35" style="enable-background:new 0 0 35 35;" xml:space="preserve">
<style type="text/css">
	.st0{fill:#2FC4AB;}
</style>
<g>
	<path class="st0" d="M13.8,23.4l10.8,2.2L10.6,30c-0.8,1.5-1.3,2.6-1.4,2.7L9,33.3l26-8.4l-16.4-3.3l14.2-4.4l-6.5-0.8L15.2,20
		C14.7,21.1,14.2,22.3,13.8,23.4z"/>
	<path class="st0" d="M17.3,10.8c0-4.8-3.8-8.7-8.6-8.7s-8.6,3.9-8.6,8.7s8.6,21.6,8.6,21.6S17.3,15.6,17.3,10.8z M5.4,10.7
		c0-1.8,1.5-3.3,3.3-3.3S12,8.9,12,10.7S10.5,14,8.7,14C6.9,14,5.4,12.6,5.4,10.7z"/>
</g>
</svg>
